<mxfile host="app.diagrams.net" modified="2024-06-21T00:57:18.044Z" agent="Mozilla/5.0 (Windows NT 10.0; Win64; x64; rv:127.0) Gecko/20100101 Firefox/127.0" etag="VLeG417No0KOiNsGWEOD" version="24.6.0" type="device">
  <diagram name="PÃ¡gina-1" id="rga_EOWg0aNkoYMGESI4">
    <mxGraphModel dx="2641" dy="2014" grid="1" gridSize="10" guides="1" tooltips="1" connect="1" arrows="1" fold="1" page="1" pageScale="1" pageWidth="827" pageHeight="1169" math="0" shadow="0">
      <root>
        <mxCell id="0" />
        <mxCell id="1" parent="0" />
        <mxCell id="YPRJRWyj9UfL6MXFMX_w-1" value="Modelo Chen" style="rounded=0;whiteSpace=wrap;html=1;" parent="1" vertex="1">
          <mxGeometry x="310" y="-100" width="230" height="60" as="geometry" />
        </mxCell>
        <mxCell id="YPRJRWyj9UfL6MXFMX_w-2" style="edgeStyle=orthogonalEdgeStyle;rounded=0;orthogonalLoop=1;jettySize=auto;html=1;entryX=0.5;entryY=0;entryDx=0;entryDy=0;endArrow=none;endFill=0;startArrow=ERoneToMany;startFill=0;" parent="1" source="YPRJRWyj9UfL6MXFMX_w-4" target="YPRJRWyj9UfL6MXFMX_w-22" edge="1">
          <mxGeometry relative="1" as="geometry" />
        </mxCell>
        <mxCell id="YPRJRWyj9UfL6MXFMX_w-3" style="edgeStyle=orthogonalEdgeStyle;rounded=0;orthogonalLoop=1;jettySize=auto;html=1;entryX=0;entryY=0.5;entryDx=0;entryDy=0;endArrow=none;endFill=0;startArrow=ERoneToMany;startFill=0;" parent="1" source="YPRJRWyj9UfL6MXFMX_w-4" target="YPRJRWyj9UfL6MXFMX_w-38" edge="1">
          <mxGeometry relative="1" as="geometry">
            <mxPoint x="110" y="150" as="targetPoint" />
            <Array as="points">
              <mxPoint x="73" y="155" />
            </Array>
          </mxGeometry>
        </mxCell>
        <mxCell id="YPRJRWyj9UfL6MXFMX_w-4" value="proveedores" style="rounded=0;whiteSpace=wrap;html=1;fillColor=#dae8fc;strokeColor=#6c8ebf;" parent="1" vertex="1">
          <mxGeometry x="27.5" y="135" width="90" height="40" as="geometry" />
        </mxCell>
        <mxCell id="YPRJRWyj9UfL6MXFMX_w-5" style="edgeStyle=orthogonalEdgeStyle;rounded=0;orthogonalLoop=1;jettySize=auto;html=1;entryX=0;entryY=0.5;entryDx=0;entryDy=0;endArrow=none;endFill=0;" parent="1" source="YPRJRWyj9UfL6MXFMX_w-8" target="YPRJRWyj9UfL6MXFMX_w-24" edge="1">
          <mxGeometry relative="1" as="geometry" />
        </mxCell>
        <mxCell id="YPRJRWyj9UfL6MXFMX_w-6" value="" style="edgeStyle=orthogonalEdgeStyle;rounded=0;orthogonalLoop=1;jettySize=auto;html=1;endArrow=none;endFill=0;startArrow=ERoneToMany;startFill=0;fillColor=#f5f5f5;strokeColor=#0F0F0F;" parent="1" source="YPRJRWyj9UfL6MXFMX_w-8" target="YPRJRWyj9UfL6MXFMX_w-24" edge="1">
          <mxGeometry relative="1" as="geometry" />
        </mxCell>
        <mxCell id="YPRJRWyj9UfL6MXFMX_w-7" style="edgeStyle=orthogonalEdgeStyle;rounded=0;orthogonalLoop=1;jettySize=auto;html=1;entryX=0.5;entryY=0;entryDx=0;entryDy=0;endArrow=none;endFill=0;startArrow=ERmandOne;startFill=0;" parent="1" source="YPRJRWyj9UfL6MXFMX_w-8" target="YPRJRWyj9UfL6MXFMX_w-31" edge="1">
          <mxGeometry relative="1" as="geometry" />
        </mxCell>
        <mxCell id="YPRJRWyj9UfL6MXFMX_w-8" value="productos" style="rounded=0;whiteSpace=wrap;html=1;fillColor=#dae8fc;strokeColor=#6c8ebf;" parent="1" vertex="1">
          <mxGeometry x="27.5" y="340" width="90" height="40" as="geometry" />
        </mxCell>
        <mxCell id="YPRJRWyj9UfL6MXFMX_w-9" style="edgeStyle=orthogonalEdgeStyle;rounded=0;orthogonalLoop=1;jettySize=auto;html=1;endArrow=none;endFill=0;startArrow=ERmandOne;startFill=0;" parent="1" source="YPRJRWyj9UfL6MXFMX_w-10" target="YPRJRWyj9UfL6MXFMX_w-26" edge="1">
          <mxGeometry relative="1" as="geometry" />
        </mxCell>
        <mxCell id="YPRJRWyj9UfL6MXFMX_w-10" value="supermercado" style="rounded=0;whiteSpace=wrap;html=1;fillColor=#dae8fc;strokeColor=#6c8ebf;" parent="1" vertex="1">
          <mxGeometry x="400" y="130" width="110" height="50" as="geometry" />
        </mxCell>
        <mxCell id="YPRJRWyj9UfL6MXFMX_w-11" style="edgeStyle=orthogonalEdgeStyle;rounded=0;orthogonalLoop=1;jettySize=auto;html=1;endArrow=none;endFill=0;startArrow=ERoneToMany;startFill=0;" parent="1" source="YPRJRWyj9UfL6MXFMX_w-13" target="YPRJRWyj9UfL6MXFMX_w-20" edge="1">
          <mxGeometry relative="1" as="geometry" />
        </mxCell>
        <mxCell id="YPRJRWyj9UfL6MXFMX_w-12" style="edgeStyle=orthogonalEdgeStyle;rounded=0;orthogonalLoop=1;jettySize=auto;html=1;entryX=1;entryY=0.5;entryDx=0;entryDy=0;endArrow=none;endFill=0;startArrow=ERmandOne;startFill=0;" parent="1" source="YPRJRWyj9UfL6MXFMX_w-13" target="YPRJRWyj9UfL6MXFMX_w-114" edge="1">
          <mxGeometry relative="1" as="geometry">
            <mxPoint x="770" y="530" as="targetPoint" />
            <Array as="points">
              <mxPoint x="770" y="515" />
            </Array>
          </mxGeometry>
        </mxCell>
        <mxCell id="YPRJRWyj9UfL6MXFMX_w-13" value="empleados" style="rounded=0;whiteSpace=wrap;html=1;fillColor=#dae8fc;strokeColor=#6c8ebf;" parent="1" vertex="1">
          <mxGeometry x="720" y="340" width="100" height="40" as="geometry" />
        </mxCell>
        <mxCell id="YPRJRWyj9UfL6MXFMX_w-14" style="edgeStyle=orthogonalEdgeStyle;rounded=0;orthogonalLoop=1;jettySize=auto;html=1;endArrow=none;endFill=0;startArrow=ERmandOne;startFill=0;" parent="1" source="YPRJRWyj9UfL6MXFMX_w-15" target="YPRJRWyj9UfL6MXFMX_w-29" edge="1">
          <mxGeometry relative="1" as="geometry" />
        </mxCell>
        <mxCell id="YPRJRWyj9UfL6MXFMX_w-15" value="cliente" style="rounded=0;whiteSpace=wrap;html=1;fillColor=#dae8fc;strokeColor=#6c8ebf;" parent="1" vertex="1">
          <mxGeometry x="930" y="607.5" width="100" height="40" as="geometry" />
        </mxCell>
        <mxCell id="YPRJRWyj9UfL6MXFMX_w-16" style="edgeStyle=orthogonalEdgeStyle;rounded=0;orthogonalLoop=1;jettySize=auto;html=1;entryX=0;entryY=0.5;entryDx=0;entryDy=0;endArrow=none;endFill=0;startArrow=ERoneToMany;startFill=0;" parent="1" source="YPRJRWyj9UfL6MXFMX_w-17" target="YPRJRWyj9UfL6MXFMX_w-20" edge="1">
          <mxGeometry relative="1" as="geometry" />
        </mxCell>
        <mxCell id="YPRJRWyj9UfL6MXFMX_w-17" value="departamento" style="rounded=0;whiteSpace=wrap;html=1;fillColor=#dae8fc;strokeColor=#6c8ebf;" parent="1" vertex="1">
          <mxGeometry x="410" y="340" width="90" height="40" as="geometry" />
        </mxCell>
        <mxCell id="YPRJRWyj9UfL6MXFMX_w-18" value="" style="edgeStyle=orthogonalEdgeStyle;rounded=0;orthogonalLoop=1;jettySize=auto;html=1;endArrow=none;endFill=0;startArrow=ERoneToMany;startFill=0;" parent="1" source="YPRJRWyj9UfL6MXFMX_w-19" target="YPRJRWyj9UfL6MXFMX_w-33" edge="1">
          <mxGeometry relative="1" as="geometry" />
        </mxCell>
        <mxCell id="YPRJRWyj9UfL6MXFMX_w-19" value="item_pedido" style="rounded=0;whiteSpace=wrap;html=1;fillColor=#dae8fc;strokeColor=#6c8ebf;" parent="1" vertex="1">
          <mxGeometry x="27.5" y="607.5" width="90" height="40" as="geometry" />
        </mxCell>
        <mxCell id="YPRJRWyj9UfL6MXFMX_w-20" value="Trabaja" style="rhombus;whiteSpace=wrap;html=1;fillColor=#d5e8d4;strokeColor=#82b366;" parent="1" vertex="1">
          <mxGeometry x="580" y="320" width="80" height="80" as="geometry" />
        </mxCell>
        <mxCell id="YPRJRWyj9UfL6MXFMX_w-21" style="edgeStyle=orthogonalEdgeStyle;rounded=0;orthogonalLoop=1;jettySize=auto;html=1;endArrow=ERoneToMany;endFill=0;" parent="1" source="YPRJRWyj9UfL6MXFMX_w-22" target="YPRJRWyj9UfL6MXFMX_w-8" edge="1">
          <mxGeometry relative="1" as="geometry" />
        </mxCell>
        <mxCell id="YPRJRWyj9UfL6MXFMX_w-22" value="Vende" style="rhombus;whiteSpace=wrap;html=1;fillColor=#d5e8d4;strokeColor=#82b366;" parent="1" vertex="1">
          <mxGeometry x="40" y="225" width="65" height="60" as="geometry" />
        </mxCell>
        <mxCell id="YPRJRWyj9UfL6MXFMX_w-23" style="edgeStyle=orthogonalEdgeStyle;rounded=0;orthogonalLoop=1;jettySize=auto;html=1;entryX=0;entryY=0.5;entryDx=0;entryDy=0;endArrow=ERmandOne;endFill=0;" parent="1" source="YPRJRWyj9UfL6MXFMX_w-24" target="YPRJRWyj9UfL6MXFMX_w-17" edge="1">
          <mxGeometry relative="1" as="geometry" />
        </mxCell>
        <mxCell id="YPRJRWyj9UfL6MXFMX_w-24" value="Pertenece a" style="rhombus;whiteSpace=wrap;html=1;fillColor=#d5e8d4;strokeColor=#82b366;" parent="1" vertex="1">
          <mxGeometry x="270" y="330" width="90" height="60" as="geometry" />
        </mxCell>
        <mxCell id="YPRJRWyj9UfL6MXFMX_w-25" value="" style="edgeStyle=orthogonalEdgeStyle;rounded=0;orthogonalLoop=1;jettySize=auto;html=1;endArrow=ERoneToMany;endFill=0;" parent="1" source="YPRJRWyj9UfL6MXFMX_w-26" target="YPRJRWyj9UfL6MXFMX_w-17" edge="1">
          <mxGeometry relative="1" as="geometry" />
        </mxCell>
        <mxCell id="YPRJRWyj9UfL6MXFMX_w-26" value="Tiene" style="rhombus;whiteSpace=wrap;html=1;fillColor=#d5e8d4;strokeColor=#82b366;" parent="1" vertex="1">
          <mxGeometry x="425" y="220" width="60" height="60" as="geometry" />
        </mxCell>
        <mxCell id="YPRJRWyj9UfL6MXFMX_w-27" value="pedido" style="rounded=0;whiteSpace=wrap;html=1;fillColor=#dae8fc;strokeColor=#6c8ebf;" parent="1" vertex="1">
          <mxGeometry x="430" y="607.5" width="100" height="40" as="geometry" />
        </mxCell>
        <mxCell id="YPRJRWyj9UfL6MXFMX_w-28" style="edgeStyle=orthogonalEdgeStyle;rounded=0;orthogonalLoop=1;jettySize=auto;html=1;entryX=1;entryY=0.5;entryDx=0;entryDy=0;endArrow=ERoneToMany;endFill=0;" parent="1" source="YPRJRWyj9UfL6MXFMX_w-29" target="YPRJRWyj9UfL6MXFMX_w-27" edge="1">
          <mxGeometry relative="1" as="geometry">
            <mxPoint x="520" y="460" as="targetPoint" />
          </mxGeometry>
        </mxCell>
        <mxCell id="YPRJRWyj9UfL6MXFMX_w-29" value="Realiza" style="rhombus;whiteSpace=wrap;html=1;fillColor=#d5e8d4;strokeColor=#82b366;" parent="1" vertex="1">
          <mxGeometry x="700" y="602.5" width="80" height="50" as="geometry" />
        </mxCell>
        <mxCell id="YPRJRWyj9UfL6MXFMX_w-30" style="edgeStyle=orthogonalEdgeStyle;rounded=0;orthogonalLoop=1;jettySize=auto;html=1;endArrow=ERmandOne;endFill=0;" parent="1" source="YPRJRWyj9UfL6MXFMX_w-31" target="YPRJRWyj9UfL6MXFMX_w-19" edge="1">
          <mxGeometry relative="1" as="geometry" />
        </mxCell>
        <mxCell id="YPRJRWyj9UfL6MXFMX_w-31" value="EstÃ¡ en" style="rhombus;whiteSpace=wrap;html=1;fillColor=#d5e8d4;strokeColor=#82b366;" parent="1" vertex="1">
          <mxGeometry x="25" y="490" width="95" height="50" as="geometry" />
        </mxCell>
        <mxCell id="YPRJRWyj9UfL6MXFMX_w-32" value="" style="edgeStyle=orthogonalEdgeStyle;rounded=0;orthogonalLoop=1;jettySize=auto;html=1;endArrow=ERmandOne;endFill=0;" parent="1" source="YPRJRWyj9UfL6MXFMX_w-33" target="YPRJRWyj9UfL6MXFMX_w-27" edge="1">
          <mxGeometry relative="1" as="geometry" />
        </mxCell>
        <mxCell id="YPRJRWyj9UfL6MXFMX_w-33" value="Contiene" style="rhombus;whiteSpace=wrap;html=1;fillColor=#d5e8d4;strokeColor=#82b366;" parent="1" vertex="1">
          <mxGeometry x="260" y="600" width="70" height="55" as="geometry" />
        </mxCell>
        <mxCell id="YPRJRWyj9UfL6MXFMX_w-34" style="edgeStyle=orthogonalEdgeStyle;rounded=0;orthogonalLoop=1;jettySize=auto;html=1;entryX=1;entryY=0.5;entryDx=0;entryDy=0;endArrow=ERmandOne;endFill=0;startArrow=none;startFill=0;" parent="1" source="YPRJRWyj9UfL6MXFMX_w-35" target="YPRJRWyj9UfL6MXFMX_w-10" edge="1">
          <mxGeometry relative="1" as="geometry" />
        </mxCell>
        <mxCell id="YPRJRWyj9UfL6MXFMX_w-35" value="tiene" style="rhombus;whiteSpace=wrap;html=1;fillColor=#d5e8d4;strokeColor=#82b366;" parent="1" vertex="1">
          <mxGeometry x="950" y="115" width="80" height="80" as="geometry" />
        </mxCell>
        <mxCell id="YPRJRWyj9UfL6MXFMX_w-36" style="edgeStyle=orthogonalEdgeStyle;rounded=0;orthogonalLoop=1;jettySize=auto;html=1;entryX=0.61;entryY=-0.05;entryDx=0;entryDy=0;entryPerimeter=0;endArrow=ERoneToMany;endFill=0;" parent="1" source="YPRJRWyj9UfL6MXFMX_w-35" target="YPRJRWyj9UfL6MXFMX_w-15" edge="1">
          <mxGeometry relative="1" as="geometry">
            <mxPoint x="790" y="460" as="targetPoint" />
          </mxGeometry>
        </mxCell>
        <mxCell id="YPRJRWyj9UfL6MXFMX_w-37" style="edgeStyle=orthogonalEdgeStyle;rounded=0;orthogonalLoop=1;jettySize=auto;html=1;entryX=0;entryY=0.5;entryDx=0;entryDy=0;endArrow=ERoneToMany;endFill=0;startArrow=none;startFill=0;" parent="1" source="YPRJRWyj9UfL6MXFMX_w-38" target="YPRJRWyj9UfL6MXFMX_w-10" edge="1">
          <mxGeometry relative="1" as="geometry" />
        </mxCell>
        <mxCell id="YPRJRWyj9UfL6MXFMX_w-38" value="tiene" style="rhombus;whiteSpace=wrap;html=1;fillColor=#d5e8d4;strokeColor=#82b366;" parent="1" vertex="1">
          <mxGeometry x="190" y="125" width="70" height="60" as="geometry" />
        </mxCell>
        <mxCell id="YPRJRWyj9UfL6MXFMX_w-39" style="edgeStyle=orthogonalEdgeStyle;rounded=0;orthogonalLoop=1;jettySize=auto;html=1;entryX=0.5;entryY=0;entryDx=0;entryDy=0;endArrow=none;endFill=0;" parent="1" source="YPRJRWyj9UfL6MXFMX_w-40" target="YPRJRWyj9UfL6MXFMX_w-10" edge="1">
          <mxGeometry relative="1" as="geometry">
            <Array as="points">
              <mxPoint x="332" y="80" />
              <mxPoint x="430" y="80" />
              <mxPoint x="430" y="130" />
            </Array>
          </mxGeometry>
        </mxCell>
        <mxCell id="YPRJRWyj9UfL6MXFMX_w-40" value="direction_super" style="ellipse;whiteSpace=wrap;html=1;fillColor=#f5f5f5;fontColor=#333333;strokeColor=#666666;" parent="1" vertex="1">
          <mxGeometry x="280" y="10" width="90" height="40" as="geometry" />
        </mxCell>
        <mxCell id="YPRJRWyj9UfL6MXFMX_w-41" style="edgeStyle=orthogonalEdgeStyle;rounded=0;orthogonalLoop=1;jettySize=auto;html=1;endArrow=none;endFill=0;" parent="1" source="YPRJRWyj9UfL6MXFMX_w-42" edge="1">
          <mxGeometry relative="1" as="geometry">
            <mxPoint x="445" y="130" as="targetPoint" />
          </mxGeometry>
        </mxCell>
        <mxCell id="YPRJRWyj9UfL6MXFMX_w-42" value="region_super" style="ellipse;whiteSpace=wrap;html=1;fillColor=#f5f5f5;fontColor=#333333;strokeColor=#666666;" parent="1" vertex="1">
          <mxGeometry x="400" y="20" width="90" height="40" as="geometry" />
        </mxCell>
        <mxCell id="YPRJRWyj9UfL6MXFMX_w-43" style="edgeStyle=orthogonalEdgeStyle;rounded=0;orthogonalLoop=1;jettySize=auto;html=1;entryX=0.75;entryY=1;entryDx=0;entryDy=0;endArrow=none;endFill=0;" parent="1" source="YPRJRWyj9UfL6MXFMX_w-44" target="YPRJRWyj9UfL6MXFMX_w-10" edge="1">
          <mxGeometry relative="1" as="geometry" />
        </mxCell>
        <mxCell id="YPRJRWyj9UfL6MXFMX_w-44" value="name_super" style="ellipse;whiteSpace=wrap;html=1;fillColor=#f5f5f5;fontColor=#333333;strokeColor=#666666;" parent="1" vertex="1">
          <mxGeometry x="550" y="185" width="90" height="40" as="geometry" />
        </mxCell>
        <mxCell id="YPRJRWyj9UfL6MXFMX_w-45" style="edgeStyle=orthogonalEdgeStyle;rounded=0;orthogonalLoop=1;jettySize=auto;html=1;entryX=0.75;entryY=0;entryDx=0;entryDy=0;endArrow=none;endFill=0;" parent="1" source="YPRJRWyj9UfL6MXFMX_w-46" target="YPRJRWyj9UfL6MXFMX_w-10" edge="1">
          <mxGeometry relative="1" as="geometry" />
        </mxCell>
        <mxCell id="YPRJRWyj9UfL6MXFMX_w-46" value="city_super" style="ellipse;whiteSpace=wrap;html=1;fillColor=#f5f5f5;fontColor=#333333;strokeColor=#666666;" parent="1" vertex="1">
          <mxGeometry x="510" y="10" width="90" height="40" as="geometry" />
        </mxCell>
        <mxCell id="YPRJRWyj9UfL6MXFMX_w-47" style="edgeStyle=orthogonalEdgeStyle;rounded=0;orthogonalLoop=1;jettySize=auto;html=1;entryX=0.25;entryY=1;entryDx=0;entryDy=0;endArrow=none;endFill=0;" parent="1" source="YPRJRWyj9UfL6MXFMX_w-48" target="YPRJRWyj9UfL6MXFMX_w-10" edge="1">
          <mxGeometry relative="1" as="geometry" />
        </mxCell>
        <mxCell id="YPRJRWyj9UfL6MXFMX_w-48" value="&lt;u&gt;id_super&lt;/u&gt;" style="ellipse;whiteSpace=wrap;html=1;fillColor=#f5f5f5;fontColor=#333333;strokeColor=#666666;" parent="1" vertex="1">
          <mxGeometry x="300" y="220" width="90" height="40" as="geometry" />
        </mxCell>
        <mxCell id="YPRJRWyj9UfL6MXFMX_w-49" style="edgeStyle=orthogonalEdgeStyle;rounded=0;orthogonalLoop=1;jettySize=auto;html=1;entryX=0.136;entryY=0.02;entryDx=0;entryDy=0;entryPerimeter=0;endArrow=none;endFill=0;" parent="1" target="YPRJRWyj9UfL6MXFMX_w-10" edge="1">
          <mxGeometry relative="1" as="geometry">
            <mxPoint x="330" y="105" as="sourcePoint" />
          </mxGeometry>
        </mxCell>
        <mxCell id="YPRJRWyj9UfL6MXFMX_w-50" style="edgeStyle=orthogonalEdgeStyle;rounded=0;orthogonalLoop=1;jettySize=auto;html=1;entryX=0.25;entryY=1;entryDx=0;entryDy=0;endArrow=none;endFill=0;" parent="1" source="YPRJRWyj9UfL6MXFMX_w-51" target="YPRJRWyj9UfL6MXFMX_w-8" edge="1">
          <mxGeometry relative="1" as="geometry" />
        </mxCell>
        <mxCell id="YPRJRWyj9UfL6MXFMX_w-51" value="&lt;u&gt;id_product&lt;/u&gt;" style="ellipse;whiteSpace=wrap;html=1;fillColor=#f5f5f5;strokeColor=#666666;" parent="1" vertex="1">
          <mxGeometry x="-40" y="430" width="90" height="40" as="geometry" />
        </mxCell>
        <mxCell id="YPRJRWyj9UfL6MXFMX_w-52" value="name_product" style="ellipse;whiteSpace=wrap;html=1;fillColor=#f5f5f5;strokeColor=#666666;" parent="1" vertex="1">
          <mxGeometry x="100" y="440" width="90" height="40" as="geometry" />
        </mxCell>
        <mxCell id="YPRJRWyj9UfL6MXFMX_w-53" value="precio_venta_public" style="ellipse;whiteSpace=wrap;html=1;fillColor=#f5f5f5;fontColor=#333333;strokeColor=#666666;" parent="1" vertex="1">
          <mxGeometry x="150" y="380" width="115" height="40" as="geometry" />
        </mxCell>
        <mxCell id="YPRJRWyj9UfL6MXFMX_w-54" style="edgeStyle=orthogonalEdgeStyle;rounded=0;orthogonalLoop=1;jettySize=auto;html=1;entryX=0.75;entryY=0;entryDx=0;entryDy=0;endArrow=none;endFill=0;" parent="1" source="YPRJRWyj9UfL6MXFMX_w-55" target="YPRJRWyj9UfL6MXFMX_w-8" edge="1">
          <mxGeometry relative="1" as="geometry">
            <Array as="points">
              <mxPoint x="110" y="320" />
              <mxPoint x="110" y="340" />
            </Array>
          </mxGeometry>
        </mxCell>
        <mxCell id="YPRJRWyj9UfL6MXFMX_w-55" value="precio_venta_prov" style="ellipse;whiteSpace=wrap;html=1;fillColor=#f5f5f5;strokeColor=#666666;" parent="1" vertex="1">
          <mxGeometry x="155" y="310" width="110" height="40" as="geometry" />
        </mxCell>
        <mxCell id="YPRJRWyj9UfL6MXFMX_w-56" value="marca" style="ellipse;whiteSpace=wrap;html=1;fillColor=#f5f5f5;strokeColor=#666666;" parent="1" vertex="1">
          <mxGeometry x="-90" y="270" width="80" height="40" as="geometry" />
        </mxCell>
        <mxCell id="YPRJRWyj9UfL6MXFMX_w-57" style="edgeStyle=orthogonalEdgeStyle;rounded=0;orthogonalLoop=1;jettySize=auto;html=1;entryX=0;entryY=0.75;entryDx=0;entryDy=0;endArrow=none;endFill=0;" parent="1" source="YPRJRWyj9UfL6MXFMX_w-58" target="YPRJRWyj9UfL6MXFMX_w-8" edge="1">
          <mxGeometry relative="1" as="geometry" />
        </mxCell>
        <mxCell id="YPRJRWyj9UfL6MXFMX_w-58" value="dpt_product" style="ellipse;whiteSpace=wrap;html=1;fillColor=#f5f5f5;strokeColor=#666666;" parent="1" vertex="1">
          <mxGeometry x="-110" y="380" width="80" height="40" as="geometry" />
        </mxCell>
        <mxCell id="YPRJRWyj9UfL6MXFMX_w-59" style="edgeStyle=orthogonalEdgeStyle;rounded=0;orthogonalLoop=1;jettySize=auto;html=1;entryX=0;entryY=0.5;entryDx=0;entryDy=0;endArrow=none;endFill=0;" parent="1" source="YPRJRWyj9UfL6MXFMX_w-60" target="YPRJRWyj9UfL6MXFMX_w-8" edge="1">
          <mxGeometry relative="1" as="geometry" />
        </mxCell>
        <mxCell id="YPRJRWyj9UfL6MXFMX_w-60" value="stock" style="ellipse;whiteSpace=wrap;html=1;fillColor=#f5f5f5;strokeColor=#666666;" parent="1" vertex="1">
          <mxGeometry x="-110" y="320" width="80" height="40" as="geometry" />
        </mxCell>
        <mxCell id="YPRJRWyj9UfL6MXFMX_w-61" style="edgeStyle=orthogonalEdgeStyle;rounded=0;orthogonalLoop=1;jettySize=auto;html=1;entryX=0.917;entryY=1;entryDx=0;entryDy=0;entryPerimeter=0;endArrow=none;endFill=0;" parent="1" source="YPRJRWyj9UfL6MXFMX_w-53" target="YPRJRWyj9UfL6MXFMX_w-8" edge="1">
          <mxGeometry relative="1" as="geometry" />
        </mxCell>
        <mxCell id="YPRJRWyj9UfL6MXFMX_w-62" style="edgeStyle=orthogonalEdgeStyle;rounded=0;orthogonalLoop=1;jettySize=auto;html=1;entryX=0.672;entryY=1.075;entryDx=0;entryDy=0;entryPerimeter=0;endArrow=none;endFill=0;" parent="1" source="YPRJRWyj9UfL6MXFMX_w-52" target="YPRJRWyj9UfL6MXFMX_w-8" edge="1">
          <mxGeometry relative="1" as="geometry" />
        </mxCell>
        <mxCell id="YPRJRWyj9UfL6MXFMX_w-63" style="edgeStyle=orthogonalEdgeStyle;rounded=0;orthogonalLoop=1;jettySize=auto;html=1;entryX=0.128;entryY=0.025;entryDx=0;entryDy=0;entryPerimeter=0;endArrow=none;endFill=0;" parent="1" source="YPRJRWyj9UfL6MXFMX_w-56" target="YPRJRWyj9UfL6MXFMX_w-8" edge="1">
          <mxGeometry relative="1" as="geometry" />
        </mxCell>
        <mxCell id="YPRJRWyj9UfL6MXFMX_w-64" style="edgeStyle=orthogonalEdgeStyle;rounded=0;orthogonalLoop=1;jettySize=auto;html=1;entryX=0.75;entryY=0;entryDx=0;entryDy=0;endArrow=none;endFill=0;" parent="1" source="YPRJRWyj9UfL6MXFMX_w-65" target="YPRJRWyj9UfL6MXFMX_w-4" edge="1">
          <mxGeometry relative="1" as="geometry" />
        </mxCell>
        <mxCell id="YPRJRWyj9UfL6MXFMX_w-65" value="&lt;u&gt;id_prov&lt;/u&gt;" style="ellipse;whiteSpace=wrap;html=1;fillColor=#f5f5f5;fontColor=#333333;strokeColor=#666666;" parent="1" vertex="1">
          <mxGeometry x="120" y="80" width="90" height="40" as="geometry" />
        </mxCell>
        <mxCell id="YPRJRWyj9UfL6MXFMX_w-66" value="RUT_prov" style="ellipse;whiteSpace=wrap;html=1;fillColor=#f5f5f5;fontColor=#333333;strokeColor=#666666;" parent="1" vertex="1">
          <mxGeometry x="40" y="30" width="90" height="40" as="geometry" />
        </mxCell>
        <mxCell id="YPRJRWyj9UfL6MXFMX_w-67" style="edgeStyle=orthogonalEdgeStyle;rounded=0;orthogonalLoop=1;jettySize=auto;html=1;entryX=0;entryY=0.75;entryDx=0;entryDy=0;endArrow=none;endFill=0;" parent="1" source="YPRJRWyj9UfL6MXFMX_w-68" target="YPRJRWyj9UfL6MXFMX_w-10" edge="1">
          <mxGeometry relative="1" as="geometry" />
        </mxCell>
        <mxCell id="YPRJRWyj9UfL6MXFMX_w-68" value="RUT_super" style="ellipse;whiteSpace=wrap;html=1;fillColor=#f5f5f5;fontColor=#333333;strokeColor=#666666;" parent="1" vertex="1">
          <mxGeometry x="260" y="170" width="90" height="40" as="geometry" />
        </mxCell>
        <mxCell id="YPRJRWyj9UfL6MXFMX_w-69" style="edgeStyle=orthogonalEdgeStyle;rounded=0;orthogonalLoop=1;jettySize=auto;html=1;entryX=0.639;entryY=0.025;entryDx=0;entryDy=0;entryPerimeter=0;endArrow=none;endFill=0;" parent="1" source="YPRJRWyj9UfL6MXFMX_w-66" target="YPRJRWyj9UfL6MXFMX_w-4" edge="1">
          <mxGeometry relative="1" as="geometry" />
        </mxCell>
        <mxCell id="YPRJRWyj9UfL6MXFMX_w-70" value="" style="edgeStyle=orthogonalEdgeStyle;rounded=0;orthogonalLoop=1;jettySize=auto;html=1;endArrow=none;endFill=0;" parent="1" source="YPRJRWyj9UfL6MXFMX_w-71" target="YPRJRWyj9UfL6MXFMX_w-4" edge="1">
          <mxGeometry relative="1" as="geometry" />
        </mxCell>
        <mxCell id="YPRJRWyj9UfL6MXFMX_w-71" value="telefono_prov" style="ellipse;shape=doubleEllipse;margin=3;whiteSpace=wrap;html=1;align=center;fillColor=#f5f5f5;fontColor=#333333;strokeColor=#666666;" parent="1" vertex="1">
          <mxGeometry x="-130" y="135" width="100" height="40" as="geometry" />
        </mxCell>
        <mxCell id="YPRJRWyj9UfL6MXFMX_w-72" style="edgeStyle=orthogonalEdgeStyle;rounded=0;orthogonalLoop=1;jettySize=auto;html=1;entryX=0.75;entryY=0;entryDx=0;entryDy=0;endArrow=none;endFill=0;" parent="1" source="YPRJRWyj9UfL6MXFMX_w-73" target="YPRJRWyj9UfL6MXFMX_w-8" edge="1">
          <mxGeometry relative="1" as="geometry" />
        </mxCell>
        <mxCell id="YPRJRWyj9UfL6MXFMX_w-73" value="modelo" style="ellipse;whiteSpace=wrap;html=1;fillColor=#f5f5f5;strokeColor=#666666;" parent="1" vertex="1">
          <mxGeometry x="150" y="260" width="80" height="40" as="geometry" />
        </mxCell>
        <mxCell id="YPRJRWyj9UfL6MXFMX_w-74" value="direction_prov" style="ellipse;whiteSpace=wrap;html=1;fillColor=#f5f5f5;fontColor=#333333;strokeColor=#666666;" parent="1" vertex="1">
          <mxGeometry x="-95" y="70" width="90" height="40" as="geometry" />
        </mxCell>
        <mxCell id="YPRJRWyj9UfL6MXFMX_w-75" style="edgeStyle=orthogonalEdgeStyle;rounded=0;orthogonalLoop=1;jettySize=auto;html=1;entryX=0.339;entryY=0.025;entryDx=0;entryDy=0;entryPerimeter=0;endArrow=none;endFill=0;" parent="1" source="YPRJRWyj9UfL6MXFMX_w-74" target="YPRJRWyj9UfL6MXFMX_w-4" edge="1">
          <mxGeometry relative="1" as="geometry" />
        </mxCell>
        <mxCell id="YPRJRWyj9UfL6MXFMX_w-76" value="telefono_super" style="ellipse;shape=doubleEllipse;margin=3;whiteSpace=wrap;html=1;align=center;fillColor=#f5f5f5;fontColor=#333333;strokeColor=#666666;" parent="1" vertex="1">
          <mxGeometry x="230" y="85" width="100" height="40" as="geometry" />
        </mxCell>
        <mxCell id="YPRJRWyj9UfL6MXFMX_w-77" style="edgeStyle=orthogonalEdgeStyle;rounded=0;orthogonalLoop=1;jettySize=auto;html=1;entryX=0.25;entryY=1;entryDx=0;entryDy=0;endArrow=none;endFill=0;" parent="1" source="YPRJRWyj9UfL6MXFMX_w-78" target="YPRJRWyj9UfL6MXFMX_w-4" edge="1">
          <mxGeometry relative="1" as="geometry">
            <mxPoint x="50" y="180" as="targetPoint" />
          </mxGeometry>
        </mxCell>
        <mxCell id="YPRJRWyj9UfL6MXFMX_w-78" value="nombre_prov" style="ellipse;whiteSpace=wrap;html=1;fillColor=#f5f5f5;fontColor=#333333;strokeColor=#666666;" parent="1" vertex="1">
          <mxGeometry x="-80" y="195" width="90" height="40" as="geometry" />
        </mxCell>
        <mxCell id="YPRJRWyj9UfL6MXFMX_w-79" style="edgeStyle=orthogonalEdgeStyle;rounded=0;orthogonalLoop=1;jettySize=auto;html=1;entryX=0.25;entryY=0;entryDx=0;entryDy=0;endArrow=none;endFill=0;" parent="1" source="YPRJRWyj9UfL6MXFMX_w-80" target="YPRJRWyj9UfL6MXFMX_w-19" edge="1">
          <mxGeometry relative="1" as="geometry" />
        </mxCell>
        <mxCell id="YPRJRWyj9UfL6MXFMX_w-80" value="&lt;u&gt;id_item_pedido&lt;/u&gt;" style="ellipse;whiteSpace=wrap;html=1;fillColor=#f5f5f5;fontColor=#333333;strokeColor=#666666;" parent="1" vertex="1">
          <mxGeometry x="-95" y="545" width="90" height="40" as="geometry" />
        </mxCell>
        <mxCell id="YPRJRWyj9UfL6MXFMX_w-81" style="edgeStyle=orthogonalEdgeStyle;rounded=0;orthogonalLoop=1;jettySize=auto;html=1;entryX=0;entryY=0.5;entryDx=0;entryDy=0;endArrow=none;endFill=0;" parent="1" source="YPRJRWyj9UfL6MXFMX_w-82" target="YPRJRWyj9UfL6MXFMX_w-19" edge="1">
          <mxGeometry relative="1" as="geometry" />
        </mxCell>
        <mxCell id="YPRJRWyj9UfL6MXFMX_w-82" value="pedido" style="ellipse;whiteSpace=wrap;html=1;fillColor=#f5f5f5;fontColor=#333333;strokeColor=#666666;" parent="1" vertex="1">
          <mxGeometry x="-115" y="607.5" width="90" height="40" as="geometry" />
        </mxCell>
        <mxCell id="YPRJRWyj9UfL6MXFMX_w-83" style="edgeStyle=orthogonalEdgeStyle;rounded=0;orthogonalLoop=1;jettySize=auto;html=1;endArrow=none;endFill=0;" parent="1" source="YPRJRWyj9UfL6MXFMX_w-84" edge="1">
          <mxGeometry relative="1" as="geometry">
            <mxPoint x="50" y="650" as="targetPoint" />
          </mxGeometry>
        </mxCell>
        <mxCell id="YPRJRWyj9UfL6MXFMX_w-84" value="cantidades" style="ellipse;whiteSpace=wrap;html=1;fillColor=#f5f5f5;fontColor=#333333;strokeColor=#666666;" parent="1" vertex="1">
          <mxGeometry x="-65" y="680" width="90" height="40" as="geometry" />
        </mxCell>
        <mxCell id="YPRJRWyj9UfL6MXFMX_w-85" style="edgeStyle=orthogonalEdgeStyle;rounded=0;orthogonalLoop=1;jettySize=auto;html=1;endArrow=none;endFill=0;" parent="1" source="YPRJRWyj9UfL6MXFMX_w-86" edge="1">
          <mxGeometry relative="1" as="geometry">
            <mxPoint x="80" y="650" as="targetPoint" />
          </mxGeometry>
        </mxCell>
        <mxCell id="YPRJRWyj9UfL6MXFMX_w-86" value="precio" style="ellipse;whiteSpace=wrap;html=1;fillColor=#f5f5f5;fontColor=#333333;strokeColor=#666666;" parent="1" vertex="1">
          <mxGeometry x="80" y="680" width="90" height="40" as="geometry" />
        </mxCell>
        <mxCell id="YPRJRWyj9UfL6MXFMX_w-87" style="edgeStyle=orthogonalEdgeStyle;rounded=0;orthogonalLoop=1;jettySize=auto;html=1;entryX=0.25;entryY=0;entryDx=0;entryDy=0;endArrow=none;endFill=0;" parent="1" source="YPRJRWyj9UfL6MXFMX_w-88" target="YPRJRWyj9UfL6MXFMX_w-17" edge="1">
          <mxGeometry relative="1" as="geometry" />
        </mxCell>
        <mxCell id="YPRJRWyj9UfL6MXFMX_w-88" value="&lt;u&gt;id_dpt&lt;/u&gt;" style="ellipse;whiteSpace=wrap;html=1;fillColor=#f5f5f5;fontColor=#333333;strokeColor=#666666;" parent="1" vertex="1">
          <mxGeometry x="330" y="270" width="90" height="40" as="geometry" />
        </mxCell>
        <mxCell id="YPRJRWyj9UfL6MXFMX_w-89" style="edgeStyle=orthogonalEdgeStyle;rounded=0;orthogonalLoop=1;jettySize=auto;html=1;entryX=1;entryY=0.75;entryDx=0;entryDy=0;endArrow=none;endFill=0;" parent="1" source="YPRJRWyj9UfL6MXFMX_w-90" target="YPRJRWyj9UfL6MXFMX_w-17" edge="1">
          <mxGeometry relative="1" as="geometry" />
        </mxCell>
        <mxCell id="YPRJRWyj9UfL6MXFMX_w-90" value="nombre_dpt" style="ellipse;whiteSpace=wrap;html=1;fillColor=#f5f5f5;fontColor=#333333;strokeColor=#666666;" parent="1" vertex="1">
          <mxGeometry x="495" y="400" width="90" height="40" as="geometry" />
        </mxCell>
        <mxCell id="YPRJRWyj9UfL6MXFMX_w-91" style="edgeStyle=orthogonalEdgeStyle;rounded=0;orthogonalLoop=1;jettySize=auto;html=1;entryX=0;entryY=0.75;entryDx=0;entryDy=0;endArrow=none;endFill=0;" parent="1" source="YPRJRWyj9UfL6MXFMX_w-92" target="YPRJRWyj9UfL6MXFMX_w-17" edge="1">
          <mxGeometry relative="1" as="geometry" />
        </mxCell>
        <mxCell id="YPRJRWyj9UfL6MXFMX_w-92" value="gerente_dpt" style="ellipse;whiteSpace=wrap;html=1;fillColor=#f5f5f5;fontColor=#333333;strokeColor=#666666;" parent="1" vertex="1">
          <mxGeometry x="340" y="400" width="90" height="40" as="geometry" />
        </mxCell>
        <mxCell id="YPRJRWyj9UfL6MXFMX_w-93" style="edgeStyle=orthogonalEdgeStyle;rounded=0;orthogonalLoop=1;jettySize=auto;html=1;endArrow=none;endFill=0;" parent="1" source="YPRJRWyj9UfL6MXFMX_w-94" edge="1">
          <mxGeometry relative="1" as="geometry">
            <mxPoint x="480" y="330" as="targetPoint" />
          </mxGeometry>
        </mxCell>
        <mxCell id="YPRJRWyj9UfL6MXFMX_w-94" value="telefono_dtp" style="ellipse;shape=doubleEllipse;margin=3;whiteSpace=wrap;html=1;align=center;fillColor=#f5f5f5;fontColor=#333333;strokeColor=#666666;" parent="1" vertex="1">
          <mxGeometry x="500" y="280" width="100" height="40" as="geometry" />
        </mxCell>
        <mxCell id="YPRJRWyj9UfL6MXFMX_w-95" style="edgeStyle=orthogonalEdgeStyle;rounded=0;orthogonalLoop=1;jettySize=auto;html=1;endArrow=none;endFill=0;" parent="1" source="YPRJRWyj9UfL6MXFMX_w-96" target="YPRJRWyj9UfL6MXFMX_w-13" edge="1">
          <mxGeometry relative="1" as="geometry">
            <Array as="points">
              <mxPoint x="815" y="300" />
              <mxPoint x="770" y="300" />
            </Array>
          </mxGeometry>
        </mxCell>
        <mxCell id="YPRJRWyj9UfL6MXFMX_w-96" value="&lt;u&gt;id_empleados&lt;/u&gt;" style="ellipse;whiteSpace=wrap;html=1;fillColor=#f5f5f5;fontColor=#333333;strokeColor=#666666;" parent="1" vertex="1">
          <mxGeometry x="770" y="245" width="90" height="40" as="geometry" />
        </mxCell>
        <mxCell id="YPRJRWyj9UfL6MXFMX_w-97" value="name_empleado" style="ellipse;whiteSpace=wrap;html=1;fillColor=#f5f5f5;fontColor=#333333;strokeColor=#666666;" parent="1" vertex="1">
          <mxGeometry x="860" y="280" width="100" height="50" as="geometry" />
        </mxCell>
        <mxCell id="YPRJRWyj9UfL6MXFMX_w-98" style="edgeStyle=orthogonalEdgeStyle;rounded=0;orthogonalLoop=1;jettySize=auto;html=1;entryX=1;entryY=0.5;entryDx=0;entryDy=0;endArrow=none;endFill=0;" parent="1" source="YPRJRWyj9UfL6MXFMX_w-99" target="YPRJRWyj9UfL6MXFMX_w-13" edge="1">
          <mxGeometry relative="1" as="geometry" />
        </mxCell>
        <mxCell id="YPRJRWyj9UfL6MXFMX_w-99" value="direction_empleados" style="ellipse;whiteSpace=wrap;html=1;fillColor=#f5f5f5;fontColor=#333333;strokeColor=#666666;" parent="1" vertex="1">
          <mxGeometry x="860" y="335" width="120" height="50" as="geometry" />
        </mxCell>
        <mxCell id="YPRJRWyj9UfL6MXFMX_w-100" value="dpt_empleados" style="ellipse;whiteSpace=wrap;html=1;fillColor=#f5f5f5;fontColor=#333333;strokeColor=#666666;" parent="1" vertex="1">
          <mxGeometry x="850" y="410" width="90" height="40" as="geometry" />
        </mxCell>
        <mxCell id="YPRJRWyj9UfL6MXFMX_w-101" value="telefono_empleados" style="ellipse;shape=doubleEllipse;margin=3;whiteSpace=wrap;html=1;align=center;fillColor=#f5f5f5;fontColor=#333333;strokeColor=#666666;" parent="1" vertex="1">
          <mxGeometry x="630" y="250" width="120" height="60" as="geometry" />
        </mxCell>
        <mxCell id="YPRJRWyj9UfL6MXFMX_w-102" style="edgeStyle=orthogonalEdgeStyle;rounded=0;orthogonalLoop=1;jettySize=auto;html=1;entryX=0.18;entryY=0.075;entryDx=0;entryDy=0;entryPerimeter=0;endArrow=none;endFill=0;" parent="1" source="YPRJRWyj9UfL6MXFMX_w-101" target="YPRJRWyj9UfL6MXFMX_w-13" edge="1">
          <mxGeometry relative="1" as="geometry" />
        </mxCell>
        <mxCell id="YPRJRWyj9UfL6MXFMX_w-103" style="edgeStyle=orthogonalEdgeStyle;rounded=0;orthogonalLoop=1;jettySize=auto;html=1;endArrow=none;endFill=0;entryX=0.84;entryY=-0.075;entryDx=0;entryDy=0;entryPerimeter=0;" parent="1" source="YPRJRWyj9UfL6MXFMX_w-97" target="YPRJRWyj9UfL6MXFMX_w-13" edge="1">
          <mxGeometry relative="1" as="geometry">
            <mxPoint x="807" y="330" as="targetPoint" />
          </mxGeometry>
        </mxCell>
        <mxCell id="YPRJRWyj9UfL6MXFMX_w-104" style="edgeStyle=orthogonalEdgeStyle;rounded=0;orthogonalLoop=1;jettySize=auto;html=1;entryX=0.9;entryY=1;entryDx=0;entryDy=0;entryPerimeter=0;endArrow=none;endFill=0;" parent="1" source="YPRJRWyj9UfL6MXFMX_w-100" target="YPRJRWyj9UfL6MXFMX_w-13" edge="1">
          <mxGeometry relative="1" as="geometry" />
        </mxCell>
        <mxCell id="YPRJRWyj9UfL6MXFMX_w-105" value="local_empleado" style="ellipse;whiteSpace=wrap;html=1;fillColor=#f5f5f5;fontColor=#333333;strokeColor=#666666;" parent="1" vertex="1">
          <mxGeometry x="650" y="410" width="100" height="50" as="geometry" />
        </mxCell>
        <mxCell id="YPRJRWyj9UfL6MXFMX_w-106" style="edgeStyle=orthogonalEdgeStyle;rounded=0;orthogonalLoop=1;jettySize=auto;html=1;entryX=0.32;entryY=1.025;entryDx=0;entryDy=0;entryPerimeter=0;endArrow=none;endFill=0;" parent="1" source="YPRJRWyj9UfL6MXFMX_w-105" target="YPRJRWyj9UfL6MXFMX_w-13" edge="1">
          <mxGeometry relative="1" as="geometry" />
        </mxCell>
        <mxCell id="YPRJRWyj9UfL6MXFMX_w-107" style="edgeStyle=orthogonalEdgeStyle;rounded=0;orthogonalLoop=1;jettySize=auto;html=1;entryX=0.5;entryY=0;entryDx=0;entryDy=0;endArrow=none;endFill=0;" parent="1" source="YPRJRWyj9UfL6MXFMX_w-108" target="YPRJRWyj9UfL6MXFMX_w-27" edge="1">
          <mxGeometry relative="1" as="geometry" />
        </mxCell>
        <mxCell id="YPRJRWyj9UfL6MXFMX_w-108" value="&lt;u&gt;id_pedido&lt;/u&gt;" style="ellipse;whiteSpace=wrap;html=1;fillColor=#f5f5f5;fontColor=#333333;strokeColor=#666666;" parent="1" vertex="1">
          <mxGeometry x="390" y="540" width="90" height="40" as="geometry" />
        </mxCell>
        <mxCell id="YPRJRWyj9UfL6MXFMX_w-109" style="edgeStyle=orthogonalEdgeStyle;rounded=0;orthogonalLoop=1;jettySize=auto;html=1;entryX=0.25;entryY=1;entryDx=0;entryDy=0;endArrow=none;endFill=0;" parent="1" source="YPRJRWyj9UfL6MXFMX_w-110" target="YPRJRWyj9UfL6MXFMX_w-27" edge="1">
          <mxGeometry relative="1" as="geometry" />
        </mxCell>
        <mxCell id="YPRJRWyj9UfL6MXFMX_w-110" value="fecha_pedido" style="ellipse;whiteSpace=wrap;html=1;fillColor=#f5f5f5;fontColor=#333333;strokeColor=#666666;" parent="1" vertex="1">
          <mxGeometry x="369" y="680" width="90" height="40" as="geometry" />
        </mxCell>
        <mxCell id="YPRJRWyj9UfL6MXFMX_w-111" value="empleado_pedido" style="ellipse;whiteSpace=wrap;html=1;fillColor=#f5f5f5;fontColor=#333333;strokeColor=#666666;" parent="1" vertex="1">
          <mxGeometry x="485" y="680" width="100" height="40" as="geometry" />
        </mxCell>
        <mxCell id="YPRJRWyj9UfL6MXFMX_w-112" style="edgeStyle=orthogonalEdgeStyle;rounded=0;orthogonalLoop=1;jettySize=auto;html=1;entryX=0.64;entryY=1.013;entryDx=0;entryDy=0;entryPerimeter=0;endArrow=none;endFill=0;" parent="1" source="YPRJRWyj9UfL6MXFMX_w-111" target="YPRJRWyj9UfL6MXFMX_w-27" edge="1">
          <mxGeometry relative="1" as="geometry" />
        </mxCell>
        <mxCell id="YPRJRWyj9UfL6MXFMX_w-113" style="edgeStyle=orthogonalEdgeStyle;rounded=0;orthogonalLoop=1;jettySize=auto;html=1;entryX=0.75;entryY=0;entryDx=0;entryDy=0;endArrow=ERoneToMany;endFill=0;" parent="1" source="YPRJRWyj9UfL6MXFMX_w-114" target="YPRJRWyj9UfL6MXFMX_w-27" edge="1">
          <mxGeometry relative="1" as="geometry" />
        </mxCell>
        <mxCell id="YPRJRWyj9UfL6MXFMX_w-114" value="Realiza" style="rhombus;whiteSpace=wrap;html=1;fillColor=#d5e8d4;strokeColor=#82b366;" parent="1" vertex="1">
          <mxGeometry x="630" y="490" width="80" height="50" as="geometry" />
        </mxCell>
        <mxCell id="YPRJRWyj9UfL6MXFMX_w-115" style="edgeStyle=orthogonalEdgeStyle;rounded=0;orthogonalLoop=1;jettySize=auto;html=1;entryX=0.75;entryY=0;entryDx=0;entryDy=0;endArrow=none;endFill=0;" parent="1" source="YPRJRWyj9UfL6MXFMX_w-116" target="YPRJRWyj9UfL6MXFMX_w-15" edge="1">
          <mxGeometry relative="1" as="geometry">
            <Array as="points">
              <mxPoint x="1055" y="550" />
              <mxPoint x="1005" y="550" />
            </Array>
          </mxGeometry>
        </mxCell>
        <mxCell id="YPRJRWyj9UfL6MXFMX_w-116" value="&lt;u&gt;id_cliente&lt;/u&gt;" style="ellipse;whiteSpace=wrap;html=1;fillColor=#f5f5f5;fontColor=#333333;strokeColor=#666666;" parent="1" vertex="1">
          <mxGeometry x="1010" y="495" width="90" height="40" as="geometry" />
        </mxCell>
        <mxCell id="YPRJRWyj9UfL6MXFMX_w-117" style="edgeStyle=orthogonalEdgeStyle;rounded=0;orthogonalLoop=1;jettySize=auto;html=1;entryX=1;entryY=0.5;entryDx=0;entryDy=0;endArrow=none;endFill=0;" parent="1" source="YPRJRWyj9UfL6MXFMX_w-118" target="YPRJRWyj9UfL6MXFMX_w-15" edge="1">
          <mxGeometry relative="1" as="geometry" />
        </mxCell>
        <mxCell id="YPRJRWyj9UfL6MXFMX_w-118" value="direction_cliente" style="ellipse;whiteSpace=wrap;html=1;fillColor=#f5f5f5;fontColor=#333333;strokeColor=#666666;" parent="1" vertex="1">
          <mxGeometry x="1100" y="607.5" width="90" height="40" as="geometry" />
        </mxCell>
        <mxCell id="YPRJRWyj9UfL6MXFMX_w-119" value="region_cliente" style="ellipse;whiteSpace=wrap;html=1;fillColor=#f5f5f5;fontColor=#333333;strokeColor=#666666;" parent="1" vertex="1">
          <mxGeometry x="1080" y="670" width="90" height="40" as="geometry" />
        </mxCell>
        <mxCell id="YPRJRWyj9UfL6MXFMX_w-120" value="name_cliente" style="ellipse;whiteSpace=wrap;html=1;fillColor=#f5f5f5;fontColor=#333333;strokeColor=#666666;" parent="1" vertex="1">
          <mxGeometry x="1110" y="540" width="90" height="40" as="geometry" />
        </mxCell>
        <mxCell id="YPRJRWyj9UfL6MXFMX_w-121" value="" style="edgeStyle=orthogonalEdgeStyle;rounded=0;orthogonalLoop=1;jettySize=auto;html=1;endArrow=none;endFill=0;" parent="1" source="YPRJRWyj9UfL6MXFMX_w-122" target="YPRJRWyj9UfL6MXFMX_w-15" edge="1">
          <mxGeometry relative="1" as="geometry" />
        </mxCell>
        <mxCell id="YPRJRWyj9UfL6MXFMX_w-122" value="city_cliente" style="ellipse;whiteSpace=wrap;html=1;fillColor=#f5f5f5;fontColor=#333333;strokeColor=#666666;" parent="1" vertex="1">
          <mxGeometry x="935" y="720" width="90" height="40" as="geometry" />
        </mxCell>
        <mxCell id="YPRJRWyj9UfL6MXFMX_w-123" style="edgeStyle=orthogonalEdgeStyle;rounded=0;orthogonalLoop=1;jettySize=auto;html=1;endArrow=none;endFill=0;" parent="1" source="YPRJRWyj9UfL6MXFMX_w-124" edge="1">
          <mxGeometry relative="1" as="geometry">
            <mxPoint x="960" y="650" as="targetPoint" />
            <Array as="points">
              <mxPoint x="961" y="710" />
              <mxPoint x="961" y="650" />
            </Array>
          </mxGeometry>
        </mxCell>
        <mxCell id="YPRJRWyj9UfL6MXFMX_w-124" value="comuna_cliente" style="ellipse;whiteSpace=wrap;html=1;fillColor=#f5f5f5;fontColor=#333333;strokeColor=#666666;" parent="1" vertex="1">
          <mxGeometry x="810" y="700" width="90" height="45" as="geometry" />
        </mxCell>
        <mxCell id="YPRJRWyj9UfL6MXFMX_w-125" value="RUT_cliente" style="ellipse;whiteSpace=wrap;html=1;fillColor=#f5f5f5;fontColor=#333333;strokeColor=#666666;" parent="1" vertex="1">
          <mxGeometry x="790" y="565" width="90" height="40" as="geometry" />
        </mxCell>
        <mxCell id="YPRJRWyj9UfL6MXFMX_w-126" style="edgeStyle=orthogonalEdgeStyle;rounded=0;orthogonalLoop=1;jettySize=auto;html=1;entryX=0.25;entryY=0;entryDx=0;entryDy=0;endArrow=none;endFill=0;" parent="1" source="YPRJRWyj9UfL6MXFMX_w-127" target="YPRJRWyj9UfL6MXFMX_w-15" edge="1">
          <mxGeometry relative="1" as="geometry" />
        </mxCell>
        <mxCell id="YPRJRWyj9UfL6MXFMX_w-127" value="telefono_cliente" style="ellipse;shape=doubleEllipse;margin=3;whiteSpace=wrap;html=1;align=center;fillColor=#f5f5f5;fontColor=#333333;strokeColor=#666666;" parent="1" vertex="1">
          <mxGeometry x="845" y="500" width="100" height="40" as="geometry" />
        </mxCell>
        <mxCell id="YPRJRWyj9UfL6MXFMX_w-128" style="edgeStyle=orthogonalEdgeStyle;rounded=0;orthogonalLoop=1;jettySize=auto;html=1;entryX=0.13;entryY=-0.012;entryDx=0;entryDy=0;entryPerimeter=0;endArrow=none;endFill=0;" parent="1" source="YPRJRWyj9UfL6MXFMX_w-125" target="YPRJRWyj9UfL6MXFMX_w-15" edge="1">
          <mxGeometry relative="1" as="geometry" />
        </mxCell>
        <mxCell id="YPRJRWyj9UfL6MXFMX_w-129" style="edgeStyle=orthogonalEdgeStyle;rounded=0;orthogonalLoop=1;jettySize=auto;html=1;entryX=0.92;entryY=0.063;entryDx=0;entryDy=0;entryPerimeter=0;endArrow=none;endFill=0;" parent="1" source="YPRJRWyj9UfL6MXFMX_w-120" target="YPRJRWyj9UfL6MXFMX_w-15" edge="1">
          <mxGeometry relative="1" as="geometry" />
        </mxCell>
        <mxCell id="YPRJRWyj9UfL6MXFMX_w-130" style="edgeStyle=orthogonalEdgeStyle;rounded=0;orthogonalLoop=1;jettySize=auto;html=1;entryX=0.9;entryY=1.063;entryDx=0;entryDy=0;entryPerimeter=0;endArrow=none;endFill=0;" parent="1" source="YPRJRWyj9UfL6MXFMX_w-119" target="YPRJRWyj9UfL6MXFMX_w-15" edge="1">
          <mxGeometry relative="1" as="geometry" />
        </mxCell>
        <mxCell id="YPRJRWyj9UfL6MXFMX_w-131" style="edgeStyle=orthogonalEdgeStyle;rounded=0;orthogonalLoop=1;jettySize=auto;html=1;entryX=0.873;entryY=-0.009;entryDx=0;entryDy=0;entryPerimeter=0;endArrow=none;endFill=0;" parent="1" target="YPRJRWyj9UfL6MXFMX_w-10" edge="1">
          <mxGeometry relative="1" as="geometry">
            <mxPoint x="620" y="95.00000000000023" as="sourcePoint" />
          </mxGeometry>
        </mxCell>
        <mxCell id="YPRJRWyj9UfL6MXFMX_w-132" value="comuna_super" style="ellipse;whiteSpace=wrap;html=1;fillColor=#f5f5f5;fontColor=#333333;strokeColor=#666666;" parent="1" vertex="1">
          <mxGeometry x="620" y="75" width="90" height="40" as="geometry" />
        </mxCell>
        <mxCell id="YPRJRWyj9UfL6MXFMX_w-133" value="Modelo Barker" style="rounded=0;whiteSpace=wrap;html=1;" parent="1" vertex="1">
          <mxGeometry x="360" y="760" width="230" height="60" as="geometry" />
        </mxCell>
        <mxCell id="YPRJRWyj9UfL6MXFMX_w-134" value="supermercado" style="shape=table;startSize=30;container=1;collapsible=1;childLayout=tableLayout;fixedRows=1;rowLines=0;fontStyle=1;align=center;resizeLast=1;html=1;fillColor=#dae8fc;strokeColor=#6c8ebf;" parent="1" vertex="1">
          <mxGeometry x="380" y="1155.5" width="180" height="504.5" as="geometry" />
        </mxCell>
        <mxCell id="YPRJRWyj9UfL6MXFMX_w-135" value="" style="shape=tableRow;horizontal=0;startSize=0;swimlaneHead=0;swimlaneBody=0;fillColor=none;collapsible=0;dropTarget=0;points=[[0,0.5],[1,0.5]];portConstraint=eastwest;top=0;left=0;right=0;bottom=1;" parent="YPRJRWyj9UfL6MXFMX_w-134" vertex="1">
          <mxGeometry y="30" width="180" height="30" as="geometry" />
        </mxCell>
        <mxCell id="YPRJRWyj9UfL6MXFMX_w-136" value="PK" style="shape=partialRectangle;connectable=0;fillColor=#f5f5f5;top=0;left=0;bottom=0;right=0;fontStyle=1;overflow=hidden;whiteSpace=wrap;html=1;fontColor=#333333;strokeColor=#666666;" parent="YPRJRWyj9UfL6MXFMX_w-135" vertex="1">
          <mxGeometry width="30" height="30" as="geometry">
            <mxRectangle width="30" height="30" as="alternateBounds" />
          </mxGeometry>
        </mxCell>
        <mxCell id="YPRJRWyj9UfL6MXFMX_w-137" value="id_super " style="shape=partialRectangle;connectable=0;fillColor=#f5f5f5;top=0;left=0;bottom=0;right=0;align=left;spacingLeft=6;fontStyle=5;overflow=hidden;whiteSpace=wrap;html=1;fontColor=#333333;strokeColor=#666666;" parent="YPRJRWyj9UfL6MXFMX_w-135" vertex="1">
          <mxGeometry x="30" width="150" height="30" as="geometry">
            <mxRectangle width="150" height="30" as="alternateBounds" />
          </mxGeometry>
        </mxCell>
        <mxCell id="YPRJRWyj9UfL6MXFMX_w-138" value="" style="shape=tableRow;horizontal=0;startSize=0;swimlaneHead=0;swimlaneBody=0;fillColor=none;collapsible=0;dropTarget=0;points=[[0,0.5],[1,0.5]];portConstraint=eastwest;top=0;left=0;right=0;bottom=0;" parent="YPRJRWyj9UfL6MXFMX_w-134" vertex="1">
          <mxGeometry y="60" width="180" height="30" as="geometry" />
        </mxCell>
        <mxCell id="YPRJRWyj9UfL6MXFMX_w-139" value="" style="shape=partialRectangle;connectable=0;fillColor=none;top=0;left=0;bottom=0;right=0;editable=1;overflow=hidden;whiteSpace=wrap;html=1;" parent="YPRJRWyj9UfL6MXFMX_w-138" vertex="1">
          <mxGeometry width="30" height="30" as="geometry">
            <mxRectangle width="30" height="30" as="alternateBounds" />
          </mxGeometry>
        </mxCell>
        <mxCell id="YPRJRWyj9UfL6MXFMX_w-140" value="RUT_super" style="shape=partialRectangle;connectable=0;fillColor=none;top=0;left=0;bottom=0;right=0;align=left;spacingLeft=6;overflow=hidden;whiteSpace=wrap;html=1;" parent="YPRJRWyj9UfL6MXFMX_w-138" vertex="1">
          <mxGeometry x="30" width="150" height="30" as="geometry">
            <mxRectangle width="150" height="30" as="alternateBounds" />
          </mxGeometry>
        </mxCell>
        <mxCell id="YPRJRWyj9UfL6MXFMX_w-141" value="" style="shape=tableRow;horizontal=0;startSize=0;swimlaneHead=0;swimlaneBody=0;fillColor=none;collapsible=0;dropTarget=0;points=[[0,0.5],[1,0.5]];portConstraint=eastwest;top=0;left=0;right=0;bottom=0;" parent="YPRJRWyj9UfL6MXFMX_w-134" vertex="1">
          <mxGeometry y="90" width="180" height="30" as="geometry" />
        </mxCell>
        <mxCell id="YPRJRWyj9UfL6MXFMX_w-142" value="" style="shape=partialRectangle;connectable=0;fillColor=none;top=0;left=0;bottom=0;right=0;editable=1;overflow=hidden;whiteSpace=wrap;html=1;" parent="YPRJRWyj9UfL6MXFMX_w-141" vertex="1">
          <mxGeometry width="30" height="30" as="geometry">
            <mxRectangle width="30" height="30" as="alternateBounds" />
          </mxGeometry>
        </mxCell>
        <mxCell id="YPRJRWyj9UfL6MXFMX_w-143" value="name_super" style="shape=partialRectangle;connectable=0;fillColor=none;top=0;left=0;bottom=0;right=0;align=left;spacingLeft=6;overflow=hidden;whiteSpace=wrap;html=1;" parent="YPRJRWyj9UfL6MXFMX_w-141" vertex="1">
          <mxGeometry x="30" width="150" height="30" as="geometry">
            <mxRectangle width="150" height="30" as="alternateBounds" />
          </mxGeometry>
        </mxCell>
        <mxCell id="YPRJRWyj9UfL6MXFMX_w-144" value="" style="shape=tableRow;horizontal=0;startSize=0;swimlaneHead=0;swimlaneBody=0;fillColor=none;collapsible=0;dropTarget=0;points=[[0,0.5],[1,0.5]];portConstraint=eastwest;top=0;left=0;right=0;bottom=0;" parent="YPRJRWyj9UfL6MXFMX_w-134" vertex="1">
          <mxGeometry y="120" width="180" height="30" as="geometry" />
        </mxCell>
        <mxCell id="YPRJRWyj9UfL6MXFMX_w-145" value="" style="shape=partialRectangle;connectable=0;fillColor=none;top=0;left=0;bottom=0;right=0;editable=1;overflow=hidden;whiteSpace=wrap;html=1;" parent="YPRJRWyj9UfL6MXFMX_w-144" vertex="1">
          <mxGeometry width="30" height="30" as="geometry">
            <mxRectangle width="30" height="30" as="alternateBounds" />
          </mxGeometry>
        </mxCell>
        <mxCell id="YPRJRWyj9UfL6MXFMX_w-146" value="telefono_super" style="shape=partialRectangle;connectable=0;fillColor=none;top=0;left=0;bottom=0;right=0;align=left;spacingLeft=6;overflow=hidden;whiteSpace=wrap;html=1;" parent="YPRJRWyj9UfL6MXFMX_w-144" vertex="1">
          <mxGeometry x="30" width="150" height="30" as="geometry">
            <mxRectangle width="150" height="30" as="alternateBounds" />
          </mxGeometry>
        </mxCell>
        <mxCell id="YPRJRWyj9UfL6MXFMX_w-147" value="" style="edgeStyle=orthogonalEdgeStyle;rounded=0;orthogonalLoop=1;jettySize=auto;html=1;endArrow=none;endFill=0;" parent="1" source="YPRJRWyj9UfL6MXFMX_w-148" target="YPRJRWyj9UfL6MXFMX_w-15" edge="1">
          <mxGeometry relative="1" as="geometry">
            <Array as="points">
              <mxPoint x="940" y="668" />
            </Array>
          </mxGeometry>
        </mxCell>
        <mxCell id="YPRJRWyj9UfL6MXFMX_w-148" value="genero_cliente" style="ellipse;whiteSpace=wrap;html=1;fillColor=#f5f5f5;fontColor=#333333;strokeColor=#666666;" parent="1" vertex="1">
          <mxGeometry x="800" y="647.5" width="90" height="40" as="geometry" />
        </mxCell>
        <mxCell id="YPRJRWyj9UfL6MXFMX_w-149" value="INT" style="shape=partialRectangle;connectable=0;fillColor=none;top=0;left=0;bottom=0;right=0;fontStyle=1;overflow=hidden;whiteSpace=wrap;html=1;" parent="1" vertex="1">
          <mxGeometry x="530" y="1185.5" width="30" height="30" as="geometry">
            <mxRectangle width="30" height="30" as="alternateBounds" />
          </mxGeometry>
        </mxCell>
        <mxCell id="YPRJRWyj9UfL6MXFMX_w-150" value="INT" style="shape=partialRectangle;connectable=0;fillColor=none;top=0;left=0;bottom=0;right=0;fontStyle=1;overflow=hidden;whiteSpace=wrap;html=1;" parent="1" vertex="1">
          <mxGeometry x="530" y="1215.5" width="30" height="30" as="geometry">
            <mxRectangle width="30" height="30" as="alternateBounds" />
          </mxGeometry>
        </mxCell>
        <mxCell id="YPRJRWyj9UfL6MXFMX_w-151" value="TEXT" style="shape=partialRectangle;connectable=0;fillColor=none;top=0;left=0;bottom=0;right=0;fontStyle=1;overflow=hidden;whiteSpace=wrap;html=1;" parent="1" vertex="1">
          <mxGeometry x="520" y="1245.5" width="40" height="30" as="geometry">
            <mxRectangle width="30" height="30" as="alternateBounds" />
          </mxGeometry>
        </mxCell>
        <mxCell id="YPRJRWyj9UfL6MXFMX_w-152" value="direction_super" style="shape=partialRectangle;connectable=0;fillColor=none;top=0;left=0;bottom=0;right=0;align=left;spacingLeft=6;overflow=hidden;whiteSpace=wrap;html=1;" parent="1" vertex="1">
          <mxGeometry x="410" y="1305.5" width="150" height="30" as="geometry">
            <mxRectangle width="150" height="30" as="alternateBounds" />
          </mxGeometry>
        </mxCell>
        <mxCell id="YPRJRWyj9UfL6MXFMX_w-153" value="region_super" style="shape=partialRectangle;connectable=0;top=0;left=0;bottom=0;right=0;align=left;spacingLeft=6;overflow=hidden;whiteSpace=wrap;html=1;" parent="1" vertex="1">
          <mxGeometry x="410" y="1335.5" width="150" height="30" as="geometry">
            <mxRectangle width="150" height="30" as="alternateBounds" />
          </mxGeometry>
        </mxCell>
        <mxCell id="YPRJRWyj9UfL6MXFMX_w-154" value="city_super" style="shape=partialRectangle;connectable=0;fillColor=none;top=0;left=0;bottom=0;right=0;align=left;spacingLeft=6;overflow=hidden;whiteSpace=wrap;html=1;" parent="1" vertex="1">
          <mxGeometry x="410" y="1365.5" width="150" height="30" as="geometry">
            <mxRectangle width="150" height="30" as="alternateBounds" />
          </mxGeometry>
        </mxCell>
        <mxCell id="YPRJRWyj9UfL6MXFMX_w-155" value="comuna_super" style="shape=partialRectangle;connectable=0;fillColor=none;top=0;left=0;bottom=0;right=0;align=left;spacingLeft=6;overflow=hidden;whiteSpace=wrap;html=1;" parent="1" vertex="1">
          <mxGeometry x="410" y="1395.5" width="150" height="30" as="geometry">
            <mxRectangle width="150" height="30" as="alternateBounds" />
          </mxGeometry>
        </mxCell>
        <mxCell id="YPRJRWyj9UfL6MXFMX_w-156" value="&lt;u&gt;id_item_pedido&lt;/u&gt;" style="shape=partialRectangle;connectable=0;fillColor=none;top=0;left=0;bottom=0;right=0;align=left;spacingLeft=6;overflow=hidden;whiteSpace=wrap;html=1;" parent="1" vertex="1">
          <mxGeometry x="410" y="1515.5" width="150" height="30" as="geometry">
            <mxRectangle width="150" height="30" as="alternateBounds" />
          </mxGeometry>
        </mxCell>
        <mxCell id="YPRJRWyj9UfL6MXFMX_w-157" value="id_Prov " style="shape=partialRectangle;connectable=0;fillColor=none;top=0;left=0;bottom=0;right=0;align=left;spacingLeft=6;overflow=hidden;whiteSpace=wrap;html=1;" parent="1" vertex="1">
          <mxGeometry x="410" y="1455.5" width="150" height="30" as="geometry">
            <mxRectangle width="150" height="30" as="alternateBounds" />
          </mxGeometry>
        </mxCell>
        <mxCell id="YPRJRWyj9UfL6MXFMX_w-158" value="&lt;u&gt;id_product&lt;/u&gt;" style="shape=partialRectangle;connectable=0;fillColor=none;top=0;left=0;bottom=0;right=0;align=left;spacingLeft=6;overflow=hidden;whiteSpace=wrap;html=1;" parent="1" vertex="1">
          <mxGeometry x="410" y="1485.5" width="150" height="30" as="geometry">
            <mxRectangle width="150" height="30" as="alternateBounds" />
          </mxGeometry>
        </mxCell>
        <mxCell id="YPRJRWyj9UfL6MXFMX_w-159" value="&lt;u&gt;id_empleados&lt;/u&gt;" style="shape=partialRectangle;connectable=0;fillColor=none;top=0;left=0;bottom=0;right=0;align=left;spacingLeft=6;overflow=hidden;whiteSpace=wrap;html=1;" parent="1" vertex="1">
          <mxGeometry x="410" y="1545.5" width="150" height="30" as="geometry">
            <mxRectangle width="150" height="30" as="alternateBounds" />
          </mxGeometry>
        </mxCell>
        <mxCell id="YPRJRWyj9UfL6MXFMX_w-160" value="&lt;u&gt;id_cliente&lt;/u&gt;" style="shape=partialRectangle;connectable=0;fillColor=none;top=0;left=0;bottom=0;right=0;align=left;spacingLeft=6;overflow=hidden;whiteSpace=wrap;html=1;" parent="1" vertex="1">
          <mxGeometry x="410" y="1575.5" width="150" height="30" as="geometry">
            <mxRectangle width="150" height="30" as="alternateBounds" />
          </mxGeometry>
        </mxCell>
        <mxCell id="YPRJRWyj9UfL6MXFMX_w-161" value="&lt;u&gt;id_dpt&lt;/u&gt;" style="shape=partialRectangle;connectable=0;fillColor=none;top=0;left=0;bottom=0;right=0;align=left;spacingLeft=6;overflow=hidden;whiteSpace=wrap;html=1;" parent="1" vertex="1">
          <mxGeometry x="410" y="1605.5" width="150" height="30" as="geometry">
            <mxRectangle width="150" height="30" as="alternateBounds" />
          </mxGeometry>
        </mxCell>
        <mxCell id="YPRJRWyj9UfL6MXFMX_w-162" value="&lt;u&gt;id_pedido&lt;/u&gt;" style="shape=partialRectangle;connectable=0;fillColor=none;top=0;left=0;bottom=0;right=0;align=left;spacingLeft=6;overflow=hidden;whiteSpace=wrap;html=1;" parent="1" vertex="1">
          <mxGeometry x="410" y="1635.5" width="150" height="30" as="geometry">
            <mxRectangle width="150" height="30" as="alternateBounds" />
          </mxGeometry>
        </mxCell>
        <mxCell id="YPRJRWyj9UfL6MXFMX_w-163" value="INT" style="shape=partialRectangle;connectable=0;fillColor=none;top=0;left=0;bottom=0;right=0;fontStyle=1;overflow=hidden;whiteSpace=wrap;html=1;" parent="1" vertex="1">
          <mxGeometry x="530" y="1275.5" width="30" height="30" as="geometry">
            <mxRectangle width="30" height="30" as="alternateBounds" />
          </mxGeometry>
        </mxCell>
        <mxCell id="YPRJRWyj9UfL6MXFMX_w-168" value="" style="endArrow=none;html=1;rounded=0;" parent="1" edge="1">
          <mxGeometry width="50" height="50" relative="1" as="geometry">
            <mxPoint x="410" y="1660" as="sourcePoint" />
            <mxPoint x="410" y="1190" as="targetPoint" />
          </mxGeometry>
        </mxCell>
        <mxCell id="Efv-xoLhRQSSkdxeiwo4-1" style="edgeStyle=orthogonalEdgeStyle;rounded=0;orthogonalLoop=1;jettySize=auto;html=1;entryX=0;entryY=0.5;entryDx=0;entryDy=0;startArrow=ERmandOne;startFill=0;endArrow=ERoneToMany;endFill=0;" edge="1" parent="1" source="YPRJRWyj9UfL6MXFMX_w-169" target="YPRJRWyj9UfL6MXFMX_w-138">
          <mxGeometry relative="1" as="geometry">
            <Array as="points">
              <mxPoint x="300" y="990" />
              <mxPoint x="300" y="1231" />
            </Array>
          </mxGeometry>
        </mxCell>
        <mxCell id="YPRJRWyj9UfL6MXFMX_w-169" value="proveedores" style="shape=table;startSize=30;container=1;collapsible=1;childLayout=tableLayout;fixedRows=1;rowLines=0;fontStyle=1;align=center;resizeLast=1;html=1;fillColor=#dae8fc;strokeColor=#6c8ebf;" parent="1" vertex="1">
          <mxGeometry x="32.5" y="854.5" width="187.5" height="185.5" as="geometry" />
        </mxCell>
        <mxCell id="YPRJRWyj9UfL6MXFMX_w-170" value="" style="shape=tableRow;horizontal=0;startSize=0;swimlaneHead=0;swimlaneBody=0;fillColor=none;collapsible=0;dropTarget=0;points=[[0,0.5],[1,0.5]];portConstraint=eastwest;top=0;left=0;right=0;bottom=1;" parent="YPRJRWyj9UfL6MXFMX_w-169" vertex="1">
          <mxGeometry y="30" width="187.5" height="30" as="geometry" />
        </mxCell>
        <mxCell id="YPRJRWyj9UfL6MXFMX_w-171" value="PK" style="shape=partialRectangle;connectable=0;fillColor=#f5f5f5;top=0;left=0;bottom=0;right=0;fontStyle=1;overflow=hidden;whiteSpace=wrap;html=1;fontColor=#333333;strokeColor=#666666;" parent="YPRJRWyj9UfL6MXFMX_w-170" vertex="1">
          <mxGeometry width="27.5" height="30" as="geometry">
            <mxRectangle width="27.5" height="30" as="alternateBounds" />
          </mxGeometry>
        </mxCell>
        <mxCell id="YPRJRWyj9UfL6MXFMX_w-172" value="id_Prov " style="shape=partialRectangle;connectable=0;fillColor=#f5f5f5;top=0;left=0;bottom=0;right=0;align=left;spacingLeft=6;fontStyle=5;overflow=hidden;whiteSpace=wrap;html=1;fontColor=#333333;strokeColor=#666666;" parent="YPRJRWyj9UfL6MXFMX_w-170" vertex="1">
          <mxGeometry x="27.5" width="160" height="30" as="geometry">
            <mxRectangle width="160" height="30" as="alternateBounds" />
          </mxGeometry>
        </mxCell>
        <mxCell id="YPRJRWyj9UfL6MXFMX_w-173" value="" style="shape=tableRow;horizontal=0;startSize=0;swimlaneHead=0;swimlaneBody=0;fillColor=none;collapsible=0;dropTarget=0;points=[[0,0.5],[1,0.5]];portConstraint=eastwest;top=0;left=0;right=0;bottom=0;" parent="YPRJRWyj9UfL6MXFMX_w-169" vertex="1">
          <mxGeometry y="60" width="187.5" height="30" as="geometry" />
        </mxCell>
        <mxCell id="YPRJRWyj9UfL6MXFMX_w-174" value="" style="shape=partialRectangle;connectable=0;fillColor=none;top=0;left=0;bottom=0;right=0;editable=1;overflow=hidden;whiteSpace=wrap;html=1;" parent="YPRJRWyj9UfL6MXFMX_w-173" vertex="1">
          <mxGeometry width="27.5" height="30" as="geometry">
            <mxRectangle width="27.5" height="30" as="alternateBounds" />
          </mxGeometry>
        </mxCell>
        <mxCell id="YPRJRWyj9UfL6MXFMX_w-175" value="RUT_prov" style="shape=partialRectangle;connectable=0;fillColor=none;top=0;left=0;bottom=0;right=0;align=left;spacingLeft=6;overflow=hidden;whiteSpace=wrap;html=1;" parent="YPRJRWyj9UfL6MXFMX_w-173" vertex="1">
          <mxGeometry x="27.5" width="160" height="30" as="geometry">
            <mxRectangle width="160" height="30" as="alternateBounds" />
          </mxGeometry>
        </mxCell>
        <mxCell id="YPRJRWyj9UfL6MXFMX_w-176" value="" style="shape=tableRow;horizontal=0;startSize=0;swimlaneHead=0;swimlaneBody=0;fillColor=none;collapsible=0;dropTarget=0;points=[[0,0.5],[1,0.5]];portConstraint=eastwest;top=0;left=0;right=0;bottom=0;" parent="YPRJRWyj9UfL6MXFMX_w-169" vertex="1">
          <mxGeometry y="90" width="187.5" height="30" as="geometry" />
        </mxCell>
        <mxCell id="YPRJRWyj9UfL6MXFMX_w-177" value="" style="shape=partialRectangle;connectable=0;fillColor=none;top=0;left=0;bottom=0;right=0;editable=1;overflow=hidden;whiteSpace=wrap;html=1;" parent="YPRJRWyj9UfL6MXFMX_w-176" vertex="1">
          <mxGeometry width="27.5" height="30" as="geometry">
            <mxRectangle width="27.5" height="30" as="alternateBounds" />
          </mxGeometry>
        </mxCell>
        <mxCell id="YPRJRWyj9UfL6MXFMX_w-178" value="direction_prov" style="shape=partialRectangle;connectable=0;fillColor=none;top=0;left=0;bottom=0;right=0;align=left;spacingLeft=6;overflow=hidden;whiteSpace=wrap;html=1;" parent="YPRJRWyj9UfL6MXFMX_w-176" vertex="1">
          <mxGeometry x="27.5" width="160" height="30" as="geometry">
            <mxRectangle width="160" height="30" as="alternateBounds" />
          </mxGeometry>
        </mxCell>
        <mxCell id="YPRJRWyj9UfL6MXFMX_w-179" value="" style="shape=tableRow;horizontal=0;startSize=0;swimlaneHead=0;swimlaneBody=0;fillColor=none;collapsible=0;dropTarget=0;points=[[0,0.5],[1,0.5]];portConstraint=eastwest;top=0;left=0;right=0;bottom=0;" parent="YPRJRWyj9UfL6MXFMX_w-169" vertex="1">
          <mxGeometry y="120" width="187.5" height="30" as="geometry" />
        </mxCell>
        <mxCell id="YPRJRWyj9UfL6MXFMX_w-180" value="" style="shape=partialRectangle;connectable=0;fillColor=none;top=0;left=0;bottom=0;right=0;editable=1;overflow=hidden;whiteSpace=wrap;html=1;" parent="YPRJRWyj9UfL6MXFMX_w-179" vertex="1">
          <mxGeometry width="27.5" height="30" as="geometry">
            <mxRectangle width="27.5" height="30" as="alternateBounds" />
          </mxGeometry>
        </mxCell>
        <mxCell id="YPRJRWyj9UfL6MXFMX_w-181" value="telefono_prov" style="shape=partialRectangle;connectable=0;fillColor=none;top=0;left=0;bottom=0;right=0;align=left;spacingLeft=6;overflow=hidden;whiteSpace=wrap;html=1;" parent="YPRJRWyj9UfL6MXFMX_w-179" vertex="1">
          <mxGeometry x="27.5" width="160" height="30" as="geometry">
            <mxRectangle width="160" height="30" as="alternateBounds" />
          </mxGeometry>
        </mxCell>
        <mxCell id="YPRJRWyj9UfL6MXFMX_w-182" value="INT" style="shape=partialRectangle;connectable=0;fillColor=none;top=0;left=0;bottom=0;right=0;fontStyle=1;overflow=hidden;whiteSpace=wrap;html=1;" parent="1" vertex="1">
          <mxGeometry x="182.5" y="884.5" width="30" height="30" as="geometry">
            <mxRectangle width="30" height="30" as="alternateBounds" />
          </mxGeometry>
        </mxCell>
        <mxCell id="YPRJRWyj9UfL6MXFMX_w-183" value="INT" style="shape=partialRectangle;connectable=0;fillColor=none;top=0;left=0;bottom=0;right=0;fontStyle=1;overflow=hidden;whiteSpace=wrap;html=1;" parent="1" vertex="1">
          <mxGeometry x="182.5" y="914.5" width="30" height="30" as="geometry">
            <mxRectangle width="30" height="30" as="alternateBounds" />
          </mxGeometry>
        </mxCell>
        <mxCell id="YPRJRWyj9UfL6MXFMX_w-184" value="INT" style="shape=partialRectangle;connectable=0;fillColor=none;top=0;left=0;bottom=0;right=0;fontStyle=1;overflow=hidden;whiteSpace=wrap;html=1;" parent="1" vertex="1">
          <mxGeometry x="182.5" y="944.5" width="30" height="30" as="geometry">
            <mxRectangle width="30" height="30" as="alternateBounds" />
          </mxGeometry>
        </mxCell>
        <mxCell id="YPRJRWyj9UfL6MXFMX_w-185" value="nombre_prov" style="shape=partialRectangle;connectable=0;fillColor=none;top=0;left=0;bottom=0;right=0;align=left;spacingLeft=6;overflow=hidden;whiteSpace=wrap;html=1;" parent="1" vertex="1">
          <mxGeometry x="62.5" y="1004.5" width="150" height="30" as="geometry">
            <mxRectangle width="150" height="30" as="alternateBounds" />
          </mxGeometry>
        </mxCell>
        <mxCell id="YPRJRWyj9UfL6MXFMX_w-186" value="INT" style="shape=partialRectangle;connectable=0;fillColor=none;top=0;left=0;bottom=0;right=0;fontStyle=1;overflow=hidden;whiteSpace=wrap;html=1;" parent="1" vertex="1">
          <mxGeometry x="182.5" y="974.5" width="30" height="30" as="geometry">
            <mxRectangle width="30" height="30" as="alternateBounds" />
          </mxGeometry>
        </mxCell>
        <mxCell id="YPRJRWyj9UfL6MXFMX_w-187" value="TEXT" style="shape=partialRectangle;connectable=0;fillColor=none;top=0;left=0;bottom=0;right=0;fontStyle=1;overflow=hidden;whiteSpace=wrap;html=1;" parent="1" vertex="1">
          <mxGeometry x="178.75" y="1004.5" width="37.5" height="30" as="geometry">
            <mxRectangle width="30" height="30" as="alternateBounds" />
          </mxGeometry>
        </mxCell>
        <mxCell id="YPRJRWyj9UfL6MXFMX_w-188" value="" style="endArrow=none;html=1;rounded=0;" parent="1" edge="1">
          <mxGeometry width="50" height="50" relative="1" as="geometry">
            <mxPoint x="63" y="1040" as="sourcePoint" />
            <mxPoint x="62.5" y="889.5" as="targetPoint" />
          </mxGeometry>
        </mxCell>
        <mxCell id="Efv-xoLhRQSSkdxeiwo4-6" style="edgeStyle=orthogonalEdgeStyle;rounded=0;orthogonalLoop=1;jettySize=auto;html=1;startArrow=ERmandOne;startFill=0;endArrow=ERoneToMany;endFill=0;" edge="1" parent="1" source="YPRJRWyj9UfL6MXFMX_w-189">
          <mxGeometry relative="1" as="geometry">
            <mxPoint x="380" y="1315.5" as="targetPoint" />
          </mxGeometry>
        </mxCell>
        <mxCell id="YPRJRWyj9UfL6MXFMX_w-189" value="productos" style="shape=table;startSize=30;container=1;collapsible=1;childLayout=tableLayout;fixedRows=1;rowLines=0;fontStyle=1;align=center;resizeLast=1;html=1;fillColor=#dae8fc;strokeColor=#6c8ebf;" parent="1" vertex="1">
          <mxGeometry x="37.5" y="1105.5" width="180" height="274.5" as="geometry" />
        </mxCell>
        <mxCell id="YPRJRWyj9UfL6MXFMX_w-190" value="" style="shape=tableRow;horizontal=0;startSize=0;swimlaneHead=0;swimlaneBody=0;fillColor=none;collapsible=0;dropTarget=0;points=[[0,0.5],[1,0.5]];portConstraint=eastwest;top=0;left=0;right=0;bottom=1;" parent="YPRJRWyj9UfL6MXFMX_w-189" vertex="1">
          <mxGeometry y="30" width="180" height="30" as="geometry" />
        </mxCell>
        <mxCell id="YPRJRWyj9UfL6MXFMX_w-191" value="PK" style="shape=partialRectangle;connectable=0;fillColor=#f5f5f5;top=0;left=0;bottom=0;right=0;fontStyle=1;overflow=hidden;whiteSpace=wrap;html=1;fontColor=#333333;strokeColor=#666666;" parent="YPRJRWyj9UfL6MXFMX_w-190" vertex="1">
          <mxGeometry width="30" height="30" as="geometry">
            <mxRectangle width="30" height="30" as="alternateBounds" />
          </mxGeometry>
        </mxCell>
        <mxCell id="YPRJRWyj9UfL6MXFMX_w-192" value="&lt;u&gt;id_product&lt;/u&gt;" style="shape=partialRectangle;connectable=0;fillColor=#f5f5f5;top=0;left=0;bottom=0;right=0;align=left;spacingLeft=6;fontStyle=5;overflow=hidden;whiteSpace=wrap;html=1;fontColor=#333333;strokeColor=#666666;" parent="YPRJRWyj9UfL6MXFMX_w-190" vertex="1">
          <mxGeometry x="30" width="150" height="30" as="geometry">
            <mxRectangle width="150" height="30" as="alternateBounds" />
          </mxGeometry>
        </mxCell>
        <mxCell id="YPRJRWyj9UfL6MXFMX_w-193" value="" style="shape=tableRow;horizontal=0;startSize=0;swimlaneHead=0;swimlaneBody=0;fillColor=none;collapsible=0;dropTarget=0;points=[[0,0.5],[1,0.5]];portConstraint=eastwest;top=0;left=0;right=0;bottom=0;" parent="YPRJRWyj9UfL6MXFMX_w-189" vertex="1">
          <mxGeometry y="60" width="180" height="30" as="geometry" />
        </mxCell>
        <mxCell id="YPRJRWyj9UfL6MXFMX_w-194" value="" style="shape=partialRectangle;connectable=0;fillColor=none;top=0;left=0;bottom=0;right=0;editable=1;overflow=hidden;whiteSpace=wrap;html=1;" parent="YPRJRWyj9UfL6MXFMX_w-193" vertex="1">
          <mxGeometry width="30" height="30" as="geometry">
            <mxRectangle width="30" height="30" as="alternateBounds" />
          </mxGeometry>
        </mxCell>
        <mxCell id="YPRJRWyj9UfL6MXFMX_w-195" value="RUT_prov" style="shape=partialRectangle;connectable=0;fillColor=none;top=0;left=0;bottom=0;right=0;align=left;spacingLeft=6;overflow=hidden;whiteSpace=wrap;html=1;" parent="YPRJRWyj9UfL6MXFMX_w-193" vertex="1">
          <mxGeometry x="30" width="150" height="30" as="geometry">
            <mxRectangle width="150" height="30" as="alternateBounds" />
          </mxGeometry>
        </mxCell>
        <mxCell id="YPRJRWyj9UfL6MXFMX_w-196" value="" style="shape=tableRow;horizontal=0;startSize=0;swimlaneHead=0;swimlaneBody=0;fillColor=none;collapsible=0;dropTarget=0;points=[[0,0.5],[1,0.5]];portConstraint=eastwest;top=0;left=0;right=0;bottom=0;" parent="YPRJRWyj9UfL6MXFMX_w-189" vertex="1">
          <mxGeometry y="90" width="180" height="30" as="geometry" />
        </mxCell>
        <mxCell id="YPRJRWyj9UfL6MXFMX_w-197" value="" style="shape=partialRectangle;connectable=0;fillColor=none;top=0;left=0;bottom=0;right=0;editable=1;overflow=hidden;whiteSpace=wrap;html=1;" parent="YPRJRWyj9UfL6MXFMX_w-196" vertex="1">
          <mxGeometry width="30" height="30" as="geometry">
            <mxRectangle width="30" height="30" as="alternateBounds" />
          </mxGeometry>
        </mxCell>
        <mxCell id="YPRJRWyj9UfL6MXFMX_w-198" value="name_product" style="shape=partialRectangle;connectable=0;fillColor=none;top=0;left=0;bottom=0;right=0;align=left;spacingLeft=6;overflow=hidden;whiteSpace=wrap;html=1;" parent="YPRJRWyj9UfL6MXFMX_w-196" vertex="1">
          <mxGeometry x="30" width="150" height="30" as="geometry">
            <mxRectangle width="150" height="30" as="alternateBounds" />
          </mxGeometry>
        </mxCell>
        <mxCell id="YPRJRWyj9UfL6MXFMX_w-199" value="" style="shape=tableRow;horizontal=0;startSize=0;swimlaneHead=0;swimlaneBody=0;fillColor=none;collapsible=0;dropTarget=0;points=[[0,0.5],[1,0.5]];portConstraint=eastwest;top=0;left=0;right=0;bottom=0;" parent="YPRJRWyj9UfL6MXFMX_w-189" vertex="1">
          <mxGeometry y="120" width="180" height="30" as="geometry" />
        </mxCell>
        <mxCell id="YPRJRWyj9UfL6MXFMX_w-200" value="" style="shape=partialRectangle;connectable=0;fillColor=none;top=0;left=0;bottom=0;right=0;editable=1;overflow=hidden;whiteSpace=wrap;html=1;" parent="YPRJRWyj9UfL6MXFMX_w-199" vertex="1">
          <mxGeometry width="30" height="30" as="geometry">
            <mxRectangle width="30" height="30" as="alternateBounds" />
          </mxGeometry>
        </mxCell>
        <mxCell id="YPRJRWyj9UfL6MXFMX_w-201" value="dpt_product" style="shape=partialRectangle;connectable=0;fillColor=none;top=0;left=0;bottom=0;right=0;align=left;spacingLeft=6;overflow=hidden;whiteSpace=wrap;html=1;" parent="YPRJRWyj9UfL6MXFMX_w-199" vertex="1">
          <mxGeometry x="30" width="150" height="30" as="geometry">
            <mxRectangle width="150" height="30" as="alternateBounds" />
          </mxGeometry>
        </mxCell>
        <mxCell id="YPRJRWyj9UfL6MXFMX_w-202" value="INT" style="shape=partialRectangle;connectable=0;fillColor=none;top=0;left=0;bottom=0;right=0;fontStyle=1;overflow=hidden;whiteSpace=wrap;html=1;" parent="1" vertex="1">
          <mxGeometry x="187.5" y="1135.5" width="30" height="30" as="geometry">
            <mxRectangle width="30" height="30" as="alternateBounds" />
          </mxGeometry>
        </mxCell>
        <mxCell id="YPRJRWyj9UfL6MXFMX_w-203" value="INT" style="shape=partialRectangle;connectable=0;fillColor=none;top=0;left=0;bottom=0;right=0;fontStyle=1;overflow=hidden;whiteSpace=wrap;html=1;" parent="1" vertex="1">
          <mxGeometry x="187.5" y="1165.5" width="30" height="30" as="geometry">
            <mxRectangle width="30" height="30" as="alternateBounds" />
          </mxGeometry>
        </mxCell>
        <mxCell id="YPRJRWyj9UfL6MXFMX_w-204" value="TEXT" style="shape=partialRectangle;connectable=0;fillColor=none;top=0;left=0;bottom=0;right=0;fontStyle=1;overflow=hidden;whiteSpace=wrap;html=1;" parent="1" vertex="1">
          <mxGeometry x="187.5" y="1195.5" width="30" height="30" as="geometry">
            <mxRectangle width="30" height="30" as="alternateBounds" />
          </mxGeometry>
        </mxCell>
        <mxCell id="YPRJRWyj9UfL6MXFMX_w-205" value="precio_venta_public" style="shape=partialRectangle;connectable=0;fillColor=none;top=0;left=0;bottom=0;right=0;align=left;spacingLeft=6;overflow=hidden;whiteSpace=wrap;html=1;" parent="1" vertex="1">
          <mxGeometry x="67.5" y="1255.5" width="150" height="30" as="geometry">
            <mxRectangle width="150" height="30" as="alternateBounds" />
          </mxGeometry>
        </mxCell>
        <mxCell id="YPRJRWyj9UfL6MXFMX_w-206" value="INT" style="shape=partialRectangle;connectable=0;fillColor=none;top=0;left=0;bottom=0;right=0;fontStyle=1;overflow=hidden;whiteSpace=wrap;html=1;" parent="1" vertex="1">
          <mxGeometry x="187.5" y="1225.5" width="30" height="30" as="geometry">
            <mxRectangle width="30" height="30" as="alternateBounds" />
          </mxGeometry>
        </mxCell>
        <mxCell id="YPRJRWyj9UfL6MXFMX_w-207" value="INT" style="shape=partialRectangle;connectable=0;fillColor=none;top=0;left=0;bottom=0;right=0;fontStyle=1;overflow=hidden;whiteSpace=wrap;html=1;" parent="1" vertex="1">
          <mxGeometry x="187.5" y="1255.5" width="30" height="30" as="geometry">
            <mxRectangle width="30" height="30" as="alternateBounds" />
          </mxGeometry>
        </mxCell>
        <mxCell id="YPRJRWyj9UfL6MXFMX_w-208" value="" style="endArrow=none;html=1;rounded=0;" parent="1" edge="1">
          <mxGeometry width="50" height="50" relative="1" as="geometry">
            <mxPoint x="67" y="1380" as="sourcePoint" />
            <mxPoint x="66.89" y="1135.5" as="targetPoint" />
          </mxGeometry>
        </mxCell>
        <mxCell id="YPRJRWyj9UfL6MXFMX_w-209" value="modelo" style="shape=partialRectangle;connectable=0;fillColor=none;top=0;left=0;bottom=0;right=0;align=left;spacingLeft=6;overflow=hidden;whiteSpace=wrap;html=1;" parent="1" vertex="1">
          <mxGeometry x="67.5" y="1285.5" width="150" height="30" as="geometry">
            <mxRectangle width="150" height="30" as="alternateBounds" />
          </mxGeometry>
        </mxCell>
        <mxCell id="YPRJRWyj9UfL6MXFMX_w-210" value="marca" style="shape=partialRectangle;connectable=0;fillColor=none;top=0;left=0;bottom=0;right=0;align=left;spacingLeft=6;overflow=hidden;whiteSpace=wrap;html=1;" parent="1" vertex="1">
          <mxGeometry x="70" y="1315.5" width="150" height="30" as="geometry">
            <mxRectangle width="150" height="30" as="alternateBounds" />
          </mxGeometry>
        </mxCell>
        <mxCell id="YPRJRWyj9UfL6MXFMX_w-211" value="stock" style="shape=partialRectangle;connectable=0;fillColor=none;top=0;left=0;bottom=0;right=0;align=left;spacingLeft=6;overflow=hidden;whiteSpace=wrap;html=1;" parent="1" vertex="1">
          <mxGeometry x="67.5" y="1345.5" width="150" height="30" as="geometry">
            <mxRectangle width="150" height="30" as="alternateBounds" />
          </mxGeometry>
        </mxCell>
        <mxCell id="YPRJRWyj9UfL6MXFMX_w-212" value="INT" style="shape=partialRectangle;connectable=0;fillColor=none;top=0;left=0;bottom=0;right=0;fontStyle=1;overflow=hidden;whiteSpace=wrap;html=1;" parent="1" vertex="1">
          <mxGeometry x="187.5" y="1285.5" width="30" height="30" as="geometry">
            <mxRectangle width="30" height="30" as="alternateBounds" />
          </mxGeometry>
        </mxCell>
        <mxCell id="YPRJRWyj9UfL6MXFMX_w-213" value="INT" style="shape=partialRectangle;connectable=0;fillColor=none;top=0;left=0;bottom=0;right=0;fontStyle=1;overflow=hidden;whiteSpace=wrap;html=1;" parent="1" vertex="1">
          <mxGeometry x="187.5" y="1315.5" width="30" height="30" as="geometry">
            <mxRectangle width="30" height="30" as="alternateBounds" />
          </mxGeometry>
        </mxCell>
        <mxCell id="YPRJRWyj9UfL6MXFMX_w-214" value="INT" style="shape=partialRectangle;connectable=0;fillColor=none;top=0;left=0;bottom=0;right=0;fontStyle=1;overflow=hidden;whiteSpace=wrap;html=1;" parent="1" vertex="1">
          <mxGeometry x="187.5" y="1345.5" width="30" height="30" as="geometry">
            <mxRectangle width="30" height="30" as="alternateBounds" />
          </mxGeometry>
        </mxCell>
        <mxCell id="Efv-xoLhRQSSkdxeiwo4-7" style="edgeStyle=orthogonalEdgeStyle;rounded=0;orthogonalLoop=1;jettySize=auto;html=1;endArrow=ERoneToMany;endFill=0;startArrow=ERmandOne;startFill=0;" edge="1" parent="1" source="YPRJRWyj9UfL6MXFMX_w-215">
          <mxGeometry relative="1" as="geometry">
            <mxPoint x="380" y="1430" as="targetPoint" />
            <Array as="points">
              <mxPoint x="300" y="1641" />
              <mxPoint x="300" y="1430" />
            </Array>
          </mxGeometry>
        </mxCell>
        <mxCell id="YPRJRWyj9UfL6MXFMX_w-215" value="item_pedido" style="shape=table;startSize=30;container=1;collapsible=1;childLayout=tableLayout;fixedRows=1;rowLines=0;fontStyle=1;align=center;resizeLast=1;html=1;fillColor=#dae8fc;strokeColor=#6c8ebf;" parent="1" vertex="1">
          <mxGeometry x="37.5" y="1505.5" width="180" height="164.5" as="geometry" />
        </mxCell>
        <mxCell id="YPRJRWyj9UfL6MXFMX_w-216" value="" style="shape=tableRow;horizontal=0;startSize=0;swimlaneHead=0;swimlaneBody=0;fillColor=none;collapsible=0;dropTarget=0;points=[[0,0.5],[1,0.5]];portConstraint=eastwest;top=0;left=0;right=0;bottom=1;" parent="YPRJRWyj9UfL6MXFMX_w-215" vertex="1">
          <mxGeometry y="30" width="180" height="30" as="geometry" />
        </mxCell>
        <mxCell id="YPRJRWyj9UfL6MXFMX_w-217" value="PK" style="shape=partialRectangle;connectable=0;fillColor=#f5f5f5;top=0;left=0;bottom=0;right=0;fontStyle=1;overflow=hidden;whiteSpace=wrap;html=1;fontColor=#333333;strokeColor=#666666;" parent="YPRJRWyj9UfL6MXFMX_w-216" vertex="1">
          <mxGeometry width="30" height="30" as="geometry">
            <mxRectangle width="30" height="30" as="alternateBounds" />
          </mxGeometry>
        </mxCell>
        <mxCell id="YPRJRWyj9UfL6MXFMX_w-218" value="&lt;u&gt;id_item_pedido&lt;/u&gt;" style="shape=partialRectangle;connectable=0;fillColor=#f5f5f5;top=0;left=0;bottom=0;right=0;align=left;spacingLeft=6;fontStyle=5;overflow=hidden;whiteSpace=wrap;html=1;fontColor=#333333;strokeColor=#666666;" parent="YPRJRWyj9UfL6MXFMX_w-216" vertex="1">
          <mxGeometry x="30" width="150" height="30" as="geometry">
            <mxRectangle width="150" height="30" as="alternateBounds" />
          </mxGeometry>
        </mxCell>
        <mxCell id="YPRJRWyj9UfL6MXFMX_w-219" value="" style="shape=tableRow;horizontal=0;startSize=0;swimlaneHead=0;swimlaneBody=0;fillColor=none;collapsible=0;dropTarget=0;points=[[0,0.5],[1,0.5]];portConstraint=eastwest;top=0;left=0;right=0;bottom=0;" parent="YPRJRWyj9UfL6MXFMX_w-215" vertex="1">
          <mxGeometry y="60" width="180" height="30" as="geometry" />
        </mxCell>
        <mxCell id="YPRJRWyj9UfL6MXFMX_w-220" value="" style="shape=partialRectangle;connectable=0;fillColor=none;top=0;left=0;bottom=0;right=0;editable=1;overflow=hidden;whiteSpace=wrap;html=1;" parent="YPRJRWyj9UfL6MXFMX_w-219" vertex="1">
          <mxGeometry width="30" height="30" as="geometry">
            <mxRectangle width="30" height="30" as="alternateBounds" />
          </mxGeometry>
        </mxCell>
        <mxCell id="YPRJRWyj9UfL6MXFMX_w-221" value="pedido" style="shape=partialRectangle;connectable=0;fillColor=none;top=0;left=0;bottom=0;right=0;align=left;spacingLeft=6;overflow=hidden;whiteSpace=wrap;html=1;" parent="YPRJRWyj9UfL6MXFMX_w-219" vertex="1">
          <mxGeometry x="30" width="150" height="30" as="geometry">
            <mxRectangle width="150" height="30" as="alternateBounds" />
          </mxGeometry>
        </mxCell>
        <mxCell id="YPRJRWyj9UfL6MXFMX_w-222" value="" style="shape=tableRow;horizontal=0;startSize=0;swimlaneHead=0;swimlaneBody=0;fillColor=none;collapsible=0;dropTarget=0;points=[[0,0.5],[1,0.5]];portConstraint=eastwest;top=0;left=0;right=0;bottom=0;" parent="YPRJRWyj9UfL6MXFMX_w-215" vertex="1">
          <mxGeometry y="90" width="180" height="30" as="geometry" />
        </mxCell>
        <mxCell id="YPRJRWyj9UfL6MXFMX_w-223" value="" style="shape=partialRectangle;connectable=0;fillColor=none;top=0;left=0;bottom=0;right=0;editable=1;overflow=hidden;whiteSpace=wrap;html=1;" parent="YPRJRWyj9UfL6MXFMX_w-222" vertex="1">
          <mxGeometry width="30" height="30" as="geometry">
            <mxRectangle width="30" height="30" as="alternateBounds" />
          </mxGeometry>
        </mxCell>
        <mxCell id="YPRJRWyj9UfL6MXFMX_w-224" value="cantidades" style="shape=partialRectangle;connectable=0;fillColor=none;top=0;left=0;bottom=0;right=0;align=left;spacingLeft=6;overflow=hidden;whiteSpace=wrap;html=1;" parent="YPRJRWyj9UfL6MXFMX_w-222" vertex="1">
          <mxGeometry x="30" width="150" height="30" as="geometry">
            <mxRectangle width="150" height="30" as="alternateBounds" />
          </mxGeometry>
        </mxCell>
        <mxCell id="YPRJRWyj9UfL6MXFMX_w-225" value="" style="shape=tableRow;horizontal=0;startSize=0;swimlaneHead=0;swimlaneBody=0;fillColor=none;collapsible=0;dropTarget=0;points=[[0,0.5],[1,0.5]];portConstraint=eastwest;top=0;left=0;right=0;bottom=0;" parent="YPRJRWyj9UfL6MXFMX_w-215" vertex="1">
          <mxGeometry y="120" width="180" height="30" as="geometry" />
        </mxCell>
        <mxCell id="YPRJRWyj9UfL6MXFMX_w-226" value="" style="shape=partialRectangle;connectable=0;fillColor=none;top=0;left=0;bottom=0;right=0;editable=1;overflow=hidden;whiteSpace=wrap;html=1;" parent="YPRJRWyj9UfL6MXFMX_w-225" vertex="1">
          <mxGeometry width="30" height="30" as="geometry">
            <mxRectangle width="30" height="30" as="alternateBounds" />
          </mxGeometry>
        </mxCell>
        <mxCell id="YPRJRWyj9UfL6MXFMX_w-227" value="precio" style="shape=partialRectangle;connectable=0;fillColor=none;top=0;left=0;bottom=0;right=0;align=left;spacingLeft=6;overflow=hidden;whiteSpace=wrap;html=1;" parent="YPRJRWyj9UfL6MXFMX_w-225" vertex="1">
          <mxGeometry x="30" width="150" height="30" as="geometry">
            <mxRectangle width="150" height="30" as="alternateBounds" />
          </mxGeometry>
        </mxCell>
        <mxCell id="YPRJRWyj9UfL6MXFMX_w-228" value="INT" style="shape=partialRectangle;connectable=0;fillColor=none;top=0;left=0;bottom=0;right=0;fontStyle=1;overflow=hidden;whiteSpace=wrap;html=1;" parent="1" vertex="1">
          <mxGeometry x="187.5" y="1535.5" width="30" height="30" as="geometry">
            <mxRectangle width="30" height="30" as="alternateBounds" />
          </mxGeometry>
        </mxCell>
        <mxCell id="YPRJRWyj9UfL6MXFMX_w-229" value="INT" style="shape=partialRectangle;connectable=0;fillColor=none;top=0;left=0;bottom=0;right=0;fontStyle=1;overflow=hidden;whiteSpace=wrap;html=1;" parent="1" vertex="1">
          <mxGeometry x="187.5" y="1565.5" width="30" height="30" as="geometry">
            <mxRectangle width="30" height="30" as="alternateBounds" />
          </mxGeometry>
        </mxCell>
        <mxCell id="YPRJRWyj9UfL6MXFMX_w-230" value="INT" style="shape=partialRectangle;connectable=0;fillColor=none;top=0;left=0;bottom=0;right=0;fontStyle=1;overflow=hidden;whiteSpace=wrap;html=1;" parent="1" vertex="1">
          <mxGeometry x="187.5" y="1595.5" width="30" height="30" as="geometry">
            <mxRectangle width="30" height="30" as="alternateBounds" />
          </mxGeometry>
        </mxCell>
        <mxCell id="YPRJRWyj9UfL6MXFMX_w-231" value="INT" style="shape=partialRectangle;connectable=0;fillColor=none;top=0;left=0;bottom=0;right=0;fontStyle=1;overflow=hidden;whiteSpace=wrap;html=1;" parent="1" vertex="1">
          <mxGeometry x="187.5" y="1625.5" width="30" height="30" as="geometry">
            <mxRectangle width="30" height="30" as="alternateBounds" />
          </mxGeometry>
        </mxCell>
        <mxCell id="YPRJRWyj9UfL6MXFMX_w-232" value="" style="endArrow=none;html=1;rounded=0;" parent="1" edge="1">
          <mxGeometry width="50" height="50" relative="1" as="geometry">
            <mxPoint x="68" y="1670" as="sourcePoint" />
            <mxPoint x="67.5" y="1535.5" as="targetPoint" />
          </mxGeometry>
        </mxCell>
        <mxCell id="Efv-xoLhRQSSkdxeiwo4-2" style="edgeStyle=orthogonalEdgeStyle;rounded=0;orthogonalLoop=1;jettySize=auto;html=1;endArrow=ERoneToMany;endFill=0;startArrow=ERmandOne;startFill=0;" edge="1" parent="1" source="YPRJRWyj9UfL6MXFMX_w-233">
          <mxGeometry relative="1" as="geometry">
            <mxPoint x="485" y="1150" as="targetPoint" />
          </mxGeometry>
        </mxCell>
        <mxCell id="YPRJRWyj9UfL6MXFMX_w-233" value="departamento" style="shape=table;startSize=30;container=1;collapsible=1;childLayout=tableLayout;fixedRows=1;rowLines=0;fontStyle=1;align=center;resizeLast=1;html=1;fillColor=#dae8fc;strokeColor=#6c8ebf;" parent="1" vertex="1">
          <mxGeometry x="387.5" y="854.5" width="195" height="155.5" as="geometry" />
        </mxCell>
        <mxCell id="YPRJRWyj9UfL6MXFMX_w-234" value="" style="shape=tableRow;horizontal=0;startSize=0;swimlaneHead=0;swimlaneBody=0;fillColor=none;collapsible=0;dropTarget=0;points=[[0,0.5],[1,0.5]];portConstraint=eastwest;top=0;left=0;right=0;bottom=1;" parent="YPRJRWyj9UfL6MXFMX_w-233" vertex="1">
          <mxGeometry y="30" width="195" height="30" as="geometry" />
        </mxCell>
        <mxCell id="YPRJRWyj9UfL6MXFMX_w-235" value="PK" style="shape=partialRectangle;connectable=0;fillColor=#f5f5f5;top=0;left=0;bottom=0;right=0;fontStyle=1;overflow=hidden;whiteSpace=wrap;html=1;fontColor=#333333;strokeColor=#666666;" parent="YPRJRWyj9UfL6MXFMX_w-234" vertex="1">
          <mxGeometry width="30" height="30" as="geometry">
            <mxRectangle width="30" height="30" as="alternateBounds" />
          </mxGeometry>
        </mxCell>
        <mxCell id="YPRJRWyj9UfL6MXFMX_w-236" value="&lt;u&gt;id_dpt&lt;/u&gt;" style="shape=partialRectangle;connectable=0;fillColor=#f5f5f5;top=0;left=0;bottom=0;right=0;align=left;spacingLeft=6;fontStyle=5;overflow=hidden;whiteSpace=wrap;html=1;fontColor=#333333;strokeColor=#666666;" parent="YPRJRWyj9UfL6MXFMX_w-234" vertex="1">
          <mxGeometry x="30" width="165" height="30" as="geometry">
            <mxRectangle width="165" height="30" as="alternateBounds" />
          </mxGeometry>
        </mxCell>
        <mxCell id="YPRJRWyj9UfL6MXFMX_w-237" value="" style="shape=tableRow;horizontal=0;startSize=0;swimlaneHead=0;swimlaneBody=0;fillColor=none;collapsible=0;dropTarget=0;points=[[0,0.5],[1,0.5]];portConstraint=eastwest;top=0;left=0;right=0;bottom=0;" parent="YPRJRWyj9UfL6MXFMX_w-233" vertex="1">
          <mxGeometry y="60" width="195" height="30" as="geometry" />
        </mxCell>
        <mxCell id="YPRJRWyj9UfL6MXFMX_w-238" value="" style="shape=partialRectangle;connectable=0;fillColor=none;top=0;left=0;bottom=0;right=0;editable=1;overflow=hidden;whiteSpace=wrap;html=1;" parent="YPRJRWyj9UfL6MXFMX_w-237" vertex="1">
          <mxGeometry width="30" height="30" as="geometry">
            <mxRectangle width="30" height="30" as="alternateBounds" />
          </mxGeometry>
        </mxCell>
        <mxCell id="YPRJRWyj9UfL6MXFMX_w-239" value="&#xa;telefono_dtp&#xa;&#xa;" style="shape=partialRectangle;connectable=0;fillColor=none;top=0;left=0;bottom=0;right=0;align=left;spacingLeft=6;overflow=hidden;whiteSpace=wrap;html=1;" parent="YPRJRWyj9UfL6MXFMX_w-237" vertex="1">
          <mxGeometry x="30" width="165" height="30" as="geometry">
            <mxRectangle width="165" height="30" as="alternateBounds" />
          </mxGeometry>
        </mxCell>
        <mxCell id="YPRJRWyj9UfL6MXFMX_w-240" value="" style="shape=tableRow;horizontal=0;startSize=0;swimlaneHead=0;swimlaneBody=0;fillColor=none;collapsible=0;dropTarget=0;points=[[0,0.5],[1,0.5]];portConstraint=eastwest;top=0;left=0;right=0;bottom=0;" parent="YPRJRWyj9UfL6MXFMX_w-233" vertex="1">
          <mxGeometry y="90" width="195" height="30" as="geometry" />
        </mxCell>
        <mxCell id="YPRJRWyj9UfL6MXFMX_w-241" value="" style="shape=partialRectangle;connectable=0;fillColor=none;top=0;left=0;bottom=0;right=0;editable=1;overflow=hidden;whiteSpace=wrap;html=1;" parent="YPRJRWyj9UfL6MXFMX_w-240" vertex="1">
          <mxGeometry width="30" height="30" as="geometry">
            <mxRectangle width="30" height="30" as="alternateBounds" />
          </mxGeometry>
        </mxCell>
        <mxCell id="YPRJRWyj9UfL6MXFMX_w-242" value="nombre_dpt" style="shape=partialRectangle;connectable=0;fillColor=none;top=0;left=0;bottom=0;right=0;align=left;spacingLeft=6;overflow=hidden;whiteSpace=wrap;html=1;" parent="YPRJRWyj9UfL6MXFMX_w-240" vertex="1">
          <mxGeometry x="30" width="165" height="30" as="geometry">
            <mxRectangle width="165" height="30" as="alternateBounds" />
          </mxGeometry>
        </mxCell>
        <mxCell id="YPRJRWyj9UfL6MXFMX_w-243" value="" style="shape=tableRow;horizontal=0;startSize=0;swimlaneHead=0;swimlaneBody=0;fillColor=none;collapsible=0;dropTarget=0;points=[[0,0.5],[1,0.5]];portConstraint=eastwest;top=0;left=0;right=0;bottom=0;" parent="YPRJRWyj9UfL6MXFMX_w-233" vertex="1">
          <mxGeometry y="120" width="195" height="30" as="geometry" />
        </mxCell>
        <mxCell id="YPRJRWyj9UfL6MXFMX_w-244" value="" style="shape=partialRectangle;connectable=0;fillColor=none;top=0;left=0;bottom=0;right=0;editable=1;overflow=hidden;whiteSpace=wrap;html=1;" parent="YPRJRWyj9UfL6MXFMX_w-243" vertex="1">
          <mxGeometry width="30" height="30" as="geometry">
            <mxRectangle width="30" height="30" as="alternateBounds" />
          </mxGeometry>
        </mxCell>
        <mxCell id="YPRJRWyj9UfL6MXFMX_w-245" value="gerente_dpt" style="shape=partialRectangle;connectable=0;fillColor=none;top=0;left=0;bottom=0;right=0;align=left;spacingLeft=6;overflow=hidden;whiteSpace=wrap;html=1;" parent="YPRJRWyj9UfL6MXFMX_w-243" vertex="1">
          <mxGeometry x="30" width="165" height="30" as="geometry">
            <mxRectangle width="165" height="30" as="alternateBounds" />
          </mxGeometry>
        </mxCell>
        <mxCell id="YPRJRWyj9UfL6MXFMX_w-250" value="" style="endArrow=none;html=1;rounded=0;entryX=0.161;entryY=0.097;entryDx=0;entryDy=0;entryPerimeter=0;exitX=0.156;exitY=1.23;exitDx=0;exitDy=0;exitPerimeter=0;" parent="YPRJRWyj9UfL6MXFMX_w-233" edge="1" target="YPRJRWyj9UfL6MXFMX_w-234" source="YPRJRWyj9UfL6MXFMX_w-243">
          <mxGeometry width="50" height="50" relative="1" as="geometry">
            <mxPoint x="37.5" y="155.5" as="sourcePoint" />
            <mxPoint x="37.5" y="150" as="targetPoint" />
          </mxGeometry>
        </mxCell>
        <mxCell id="YPRJRWyj9UfL6MXFMX_w-246" value="INT" style="shape=partialRectangle;connectable=0;fillColor=none;top=0;left=0;bottom=0;right=0;fontStyle=1;overflow=hidden;whiteSpace=wrap;html=1;" parent="1" vertex="1">
          <mxGeometry x="545" y="884.5" width="30" height="30" as="geometry">
            <mxRectangle width="30" height="30" as="alternateBounds" />
          </mxGeometry>
        </mxCell>
        <mxCell id="YPRJRWyj9UfL6MXFMX_w-247" value="INT" style="shape=partialRectangle;connectable=0;fillColor=none;top=0;left=0;bottom=0;right=0;fontStyle=1;overflow=hidden;whiteSpace=wrap;html=1;" parent="1" vertex="1">
          <mxGeometry x="545" y="914.5" width="30" height="30" as="geometry">
            <mxRectangle width="30" height="30" as="alternateBounds" />
          </mxGeometry>
        </mxCell>
        <mxCell id="YPRJRWyj9UfL6MXFMX_w-248" value="TEXT" style="shape=partialRectangle;connectable=0;fillColor=none;top=0;left=0;bottom=0;right=0;fontStyle=1;overflow=hidden;whiteSpace=wrap;html=1;" parent="1" vertex="1">
          <mxGeometry x="540" y="944.5" width="35" height="30" as="geometry">
            <mxRectangle width="30" height="30" as="alternateBounds" />
          </mxGeometry>
        </mxCell>
        <mxCell id="YPRJRWyj9UfL6MXFMX_w-249" value="INT" style="shape=partialRectangle;connectable=0;fillColor=none;top=0;left=0;bottom=0;right=0;fontStyle=1;overflow=hidden;whiteSpace=wrap;html=1;" parent="1" vertex="1">
          <mxGeometry x="545" y="974.5" width="30" height="30" as="geometry">
            <mxRectangle width="30" height="30" as="alternateBounds" />
          </mxGeometry>
        </mxCell>
        <mxCell id="YPRJRWyj9UfL6MXFMX_w-251" value="pedido" style="shape=table;startSize=26;container=1;collapsible=1;childLayout=tableLayout;fixedRows=1;rowLines=0;fontStyle=1;align=center;resizeLast=1;html=1;fillColor=#dae8fc;strokeColor=#6c8ebf;" parent="1" vertex="1">
          <mxGeometry x="695" y="854.5" width="180" height="146" as="geometry" />
        </mxCell>
        <mxCell id="YPRJRWyj9UfL6MXFMX_w-252" value="" style="shape=tableRow;horizontal=0;startSize=0;swimlaneHead=0;swimlaneBody=0;fillColor=none;collapsible=0;dropTarget=0;points=[[0,0.5],[1,0.5]];portConstraint=eastwest;top=0;left=0;right=0;bottom=1;" parent="YPRJRWyj9UfL6MXFMX_w-251" vertex="1">
          <mxGeometry y="26" width="180" height="30" as="geometry" />
        </mxCell>
        <mxCell id="YPRJRWyj9UfL6MXFMX_w-253" value="PK" style="shape=partialRectangle;connectable=0;fillColor=#f5f5f5;top=0;left=0;bottom=0;right=0;fontStyle=1;overflow=hidden;whiteSpace=wrap;html=1;fontColor=#333333;strokeColor=#666666;" parent="YPRJRWyj9UfL6MXFMX_w-252" vertex="1">
          <mxGeometry width="30" height="30" as="geometry">
            <mxRectangle width="30" height="30" as="alternateBounds" />
          </mxGeometry>
        </mxCell>
        <mxCell id="YPRJRWyj9UfL6MXFMX_w-254" value="&lt;u&gt;id_pedido&lt;/u&gt;" style="shape=partialRectangle;connectable=0;fillColor=#f5f5f5;top=0;left=0;bottom=0;right=0;align=left;spacingLeft=6;fontStyle=5;overflow=hidden;whiteSpace=wrap;html=1;fontColor=#333333;strokeColor=#666666;" parent="YPRJRWyj9UfL6MXFMX_w-252" vertex="1">
          <mxGeometry x="30" width="150" height="30" as="geometry">
            <mxRectangle width="150" height="30" as="alternateBounds" />
          </mxGeometry>
        </mxCell>
        <mxCell id="YPRJRWyj9UfL6MXFMX_w-255" value="" style="shape=tableRow;horizontal=0;startSize=0;swimlaneHead=0;swimlaneBody=0;fillColor=none;collapsible=0;dropTarget=0;points=[[0,0.5],[1,0.5]];portConstraint=eastwest;top=0;left=0;right=0;bottom=0;" parent="YPRJRWyj9UfL6MXFMX_w-251" vertex="1">
          <mxGeometry y="56" width="180" height="30" as="geometry" />
        </mxCell>
        <mxCell id="YPRJRWyj9UfL6MXFMX_w-256" value="" style="shape=partialRectangle;connectable=0;fillColor=none;top=0;left=0;bottom=0;right=0;editable=1;overflow=hidden;whiteSpace=wrap;html=1;" parent="YPRJRWyj9UfL6MXFMX_w-255" vertex="1">
          <mxGeometry width="30" height="30" as="geometry">
            <mxRectangle width="30" height="30" as="alternateBounds" />
          </mxGeometry>
        </mxCell>
        <mxCell id="YPRJRWyj9UfL6MXFMX_w-257" value="fecha_pedido" style="shape=partialRectangle;connectable=0;fillColor=none;top=0;left=0;bottom=0;right=0;align=left;spacingLeft=6;overflow=hidden;whiteSpace=wrap;html=1;" parent="YPRJRWyj9UfL6MXFMX_w-255" vertex="1">
          <mxGeometry x="30" width="150" height="30" as="geometry">
            <mxRectangle width="150" height="30" as="alternateBounds" />
          </mxGeometry>
        </mxCell>
        <mxCell id="YPRJRWyj9UfL6MXFMX_w-258" value="" style="shape=tableRow;horizontal=0;startSize=0;swimlaneHead=0;swimlaneBody=0;fillColor=none;collapsible=0;dropTarget=0;points=[[0,0.5],[1,0.5]];portConstraint=eastwest;top=0;left=0;right=0;bottom=0;" parent="YPRJRWyj9UfL6MXFMX_w-251" vertex="1">
          <mxGeometry y="86" width="180" height="30" as="geometry" />
        </mxCell>
        <mxCell id="YPRJRWyj9UfL6MXFMX_w-259" value="" style="shape=partialRectangle;connectable=0;fillColor=none;top=0;left=0;bottom=0;right=0;editable=1;overflow=hidden;whiteSpace=wrap;html=1;" parent="YPRJRWyj9UfL6MXFMX_w-258" vertex="1">
          <mxGeometry width="30" height="30" as="geometry">
            <mxRectangle width="30" height="30" as="alternateBounds" />
          </mxGeometry>
        </mxCell>
        <mxCell id="YPRJRWyj9UfL6MXFMX_w-260" value="empleado_pedido" style="shape=partialRectangle;connectable=0;fillColor=none;top=0;left=0;bottom=0;right=0;align=left;spacingLeft=6;overflow=hidden;whiteSpace=wrap;html=1;" parent="YPRJRWyj9UfL6MXFMX_w-258" vertex="1">
          <mxGeometry x="30" width="150" height="30" as="geometry">
            <mxRectangle width="150" height="30" as="alternateBounds" />
          </mxGeometry>
        </mxCell>
        <mxCell id="YPRJRWyj9UfL6MXFMX_w-261" value="" style="shape=tableRow;horizontal=0;startSize=0;swimlaneHead=0;swimlaneBody=0;fillColor=none;collapsible=0;dropTarget=0;points=[[0,0.5],[1,0.5]];portConstraint=eastwest;top=0;left=0;right=0;bottom=0;" parent="YPRJRWyj9UfL6MXFMX_w-251" vertex="1">
          <mxGeometry y="116" width="180" height="30" as="geometry" />
        </mxCell>
        <mxCell id="YPRJRWyj9UfL6MXFMX_w-262" value="" style="shape=partialRectangle;connectable=0;fillColor=none;top=0;left=0;bottom=0;right=0;editable=1;overflow=hidden;whiteSpace=wrap;html=1;" parent="YPRJRWyj9UfL6MXFMX_w-261" vertex="1">
          <mxGeometry width="30" height="30" as="geometry">
            <mxRectangle width="30" height="30" as="alternateBounds" />
          </mxGeometry>
        </mxCell>
        <mxCell id="YPRJRWyj9UfL6MXFMX_w-263" value="" style="shape=partialRectangle;connectable=0;fillColor=none;top=0;left=0;bottom=0;right=0;align=left;spacingLeft=6;overflow=hidden;whiteSpace=wrap;html=1;" parent="YPRJRWyj9UfL6MXFMX_w-261" vertex="1">
          <mxGeometry x="30" width="150" height="30" as="geometry">
            <mxRectangle width="150" height="30" as="alternateBounds" />
          </mxGeometry>
        </mxCell>
        <mxCell id="YPRJRWyj9UfL6MXFMX_w-268" value="" style="endArrow=none;html=1;rounded=0;entryX=0.168;entryY=0.011;entryDx=0;entryDy=0;entryPerimeter=0;exitX=0.161;exitY=0.97;exitDx=0;exitDy=0;exitPerimeter=0;" parent="YPRJRWyj9UfL6MXFMX_w-251" edge="1" target="YPRJRWyj9UfL6MXFMX_w-252" source="YPRJRWyj9UfL6MXFMX_w-261">
          <mxGeometry width="50" height="50" relative="1" as="geometry">
            <mxPoint x="30" y="135.5" as="sourcePoint" />
            <mxPoint x="30" y="150" as="targetPoint" />
          </mxGeometry>
        </mxCell>
        <mxCell id="YPRJRWyj9UfL6MXFMX_w-264" value="INT" style="shape=partialRectangle;connectable=0;fillColor=none;top=0;left=0;bottom=0;right=0;fontStyle=1;overflow=hidden;whiteSpace=wrap;html=1;" parent="1" vertex="1">
          <mxGeometry x="845" y="884.5" width="30" height="30" as="geometry">
            <mxRectangle width="30" height="30" as="alternateBounds" />
          </mxGeometry>
        </mxCell>
        <mxCell id="YPRJRWyj9UfL6MXFMX_w-265" value="INT" style="shape=partialRectangle;connectable=0;fillColor=none;top=0;left=0;bottom=0;right=0;fontStyle=1;overflow=hidden;whiteSpace=wrap;html=1;" parent="1" vertex="1">
          <mxGeometry x="845" y="914.5" width="30" height="30" as="geometry">
            <mxRectangle width="30" height="30" as="alternateBounds" />
          </mxGeometry>
        </mxCell>
        <mxCell id="YPRJRWyj9UfL6MXFMX_w-266" value="INT" style="shape=partialRectangle;connectable=0;fillColor=none;top=0;left=0;bottom=0;right=0;fontStyle=1;overflow=hidden;whiteSpace=wrap;html=1;" parent="1" vertex="1">
          <mxGeometry x="845" y="944.5" width="30" height="30" as="geometry">
            <mxRectangle width="30" height="30" as="alternateBounds" />
          </mxGeometry>
        </mxCell>
        <mxCell id="YPRJRWyj9UfL6MXFMX_w-267" value="" style="shape=partialRectangle;connectable=0;fillColor=none;top=0;left=0;bottom=0;right=0;fontStyle=1;overflow=hidden;whiteSpace=wrap;html=1;" parent="1" vertex="1">
          <mxGeometry x="845" y="974.5" width="30" height="30" as="geometry">
            <mxRectangle width="30" height="30" as="alternateBounds" />
          </mxGeometry>
        </mxCell>
        <mxCell id="YPRJRWyj9UfL6MXFMX_w-269" value="empleados" style="shape=table;startSize=30;container=1;collapsible=1;childLayout=tableLayout;fixedRows=1;rowLines=0;fontStyle=1;align=center;resizeLast=1;html=1;fillColor=#dae8fc;strokeColor=#6c8ebf;" parent="1" vertex="1">
          <mxGeometry x="680" y="1471" width="190" height="203.5" as="geometry" />
        </mxCell>
        <mxCell id="YPRJRWyj9UfL6MXFMX_w-270" value="" style="shape=tableRow;horizontal=0;startSize=0;swimlaneHead=0;swimlaneBody=0;fillColor=none;collapsible=0;dropTarget=0;points=[[0,0.5],[1,0.5]];portConstraint=eastwest;top=0;left=0;right=0;bottom=1;" parent="YPRJRWyj9UfL6MXFMX_w-269" vertex="1">
          <mxGeometry y="30" width="190" height="30" as="geometry" />
        </mxCell>
        <mxCell id="YPRJRWyj9UfL6MXFMX_w-271" value="PK" style="shape=partialRectangle;connectable=0;fillColor=#f5f5f5;top=0;left=0;bottom=0;right=0;fontStyle=1;overflow=hidden;whiteSpace=wrap;html=1;fontColor=#333333;strokeColor=#666666;" parent="YPRJRWyj9UfL6MXFMX_w-270" vertex="1">
          <mxGeometry width="30" height="30" as="geometry">
            <mxRectangle width="30" height="30" as="alternateBounds" />
          </mxGeometry>
        </mxCell>
        <mxCell id="YPRJRWyj9UfL6MXFMX_w-272" value="&lt;u&gt;id_empleados&lt;/u&gt;" style="shape=partialRectangle;connectable=0;fillColor=#f5f5f5;top=0;left=0;bottom=0;right=0;align=left;spacingLeft=6;fontStyle=5;overflow=hidden;whiteSpace=wrap;html=1;fontColor=#333333;strokeColor=#666666;" parent="YPRJRWyj9UfL6MXFMX_w-270" vertex="1">
          <mxGeometry x="30" width="160" height="30" as="geometry">
            <mxRectangle width="160" height="30" as="alternateBounds" />
          </mxGeometry>
        </mxCell>
        <mxCell id="YPRJRWyj9UfL6MXFMX_w-273" value="" style="shape=tableRow;horizontal=0;startSize=0;swimlaneHead=0;swimlaneBody=0;fillColor=none;collapsible=0;dropTarget=0;points=[[0,0.5],[1,0.5]];portConstraint=eastwest;top=0;left=0;right=0;bottom=0;" parent="YPRJRWyj9UfL6MXFMX_w-269" vertex="1">
          <mxGeometry y="60" width="190" height="30" as="geometry" />
        </mxCell>
        <mxCell id="YPRJRWyj9UfL6MXFMX_w-274" value="" style="shape=partialRectangle;connectable=0;fillColor=none;top=0;left=0;bottom=0;right=0;editable=1;overflow=hidden;whiteSpace=wrap;html=1;" parent="YPRJRWyj9UfL6MXFMX_w-273" vertex="1">
          <mxGeometry width="30" height="30" as="geometry">
            <mxRectangle width="30" height="30" as="alternateBounds" />
          </mxGeometry>
        </mxCell>
        <mxCell id="YPRJRWyj9UfL6MXFMX_w-275" value="name_empleado" style="shape=partialRectangle;connectable=0;fillColor=none;top=0;left=0;bottom=0;right=0;align=left;spacingLeft=6;overflow=hidden;whiteSpace=wrap;html=1;" parent="YPRJRWyj9UfL6MXFMX_w-273" vertex="1">
          <mxGeometry x="30" width="160" height="30" as="geometry">
            <mxRectangle width="160" height="30" as="alternateBounds" />
          </mxGeometry>
        </mxCell>
        <mxCell id="YPRJRWyj9UfL6MXFMX_w-276" value="" style="shape=tableRow;horizontal=0;startSize=0;swimlaneHead=0;swimlaneBody=0;fillColor=none;collapsible=0;dropTarget=0;points=[[0,0.5],[1,0.5]];portConstraint=eastwest;top=0;left=0;right=0;bottom=0;" parent="YPRJRWyj9UfL6MXFMX_w-269" vertex="1">
          <mxGeometry y="90" width="190" height="30" as="geometry" />
        </mxCell>
        <mxCell id="YPRJRWyj9UfL6MXFMX_w-277" value="" style="shape=partialRectangle;connectable=0;fillColor=none;top=0;left=0;bottom=0;right=0;editable=1;overflow=hidden;whiteSpace=wrap;html=1;" parent="YPRJRWyj9UfL6MXFMX_w-276" vertex="1">
          <mxGeometry width="30" height="30" as="geometry">
            <mxRectangle width="30" height="30" as="alternateBounds" />
          </mxGeometry>
        </mxCell>
        <mxCell id="YPRJRWyj9UfL6MXFMX_w-278" value="direction_empleados" style="shape=partialRectangle;connectable=0;fillColor=none;top=0;left=0;bottom=0;right=0;align=left;spacingLeft=6;overflow=hidden;whiteSpace=wrap;html=1;" parent="YPRJRWyj9UfL6MXFMX_w-276" vertex="1">
          <mxGeometry x="30" width="160" height="30" as="geometry">
            <mxRectangle width="160" height="30" as="alternateBounds" />
          </mxGeometry>
        </mxCell>
        <mxCell id="YPRJRWyj9UfL6MXFMX_w-279" value="" style="shape=tableRow;horizontal=0;startSize=0;swimlaneHead=0;swimlaneBody=0;fillColor=none;collapsible=0;dropTarget=0;points=[[0,0.5],[1,0.5]];portConstraint=eastwest;top=0;left=0;right=0;bottom=0;" parent="YPRJRWyj9UfL6MXFMX_w-269" vertex="1">
          <mxGeometry y="120" width="190" height="29" as="geometry" />
        </mxCell>
        <mxCell id="YPRJRWyj9UfL6MXFMX_w-280" value="" style="shape=partialRectangle;connectable=0;fillColor=none;top=0;left=0;bottom=0;right=0;editable=1;overflow=hidden;whiteSpace=wrap;html=1;" parent="YPRJRWyj9UfL6MXFMX_w-279" vertex="1">
          <mxGeometry width="30" height="29" as="geometry">
            <mxRectangle width="30" height="29" as="alternateBounds" />
          </mxGeometry>
        </mxCell>
        <mxCell id="YPRJRWyj9UfL6MXFMX_w-281" value="" style="shape=partialRectangle;connectable=0;fillColor=none;top=0;left=0;bottom=0;right=0;align=left;spacingLeft=6;overflow=hidden;whiteSpace=wrap;html=1;" parent="YPRJRWyj9UfL6MXFMX_w-279" vertex="1">
          <mxGeometry x="30" width="160" height="29" as="geometry">
            <mxRectangle width="160" height="29" as="alternateBounds" />
          </mxGeometry>
        </mxCell>
        <mxCell id="YPRJRWyj9UfL6MXFMX_w-283" value="TEXT" style="shape=partialRectangle;connectable=0;fillColor=none;top=0;left=0;bottom=0;right=0;fontStyle=1;overflow=hidden;whiteSpace=wrap;html=1;" parent="1" vertex="1">
          <mxGeometry x="825" y="1565.5" width="40" height="30" as="geometry">
            <mxRectangle width="30" height="30" as="alternateBounds" />
          </mxGeometry>
        </mxCell>
        <mxCell id="YPRJRWyj9UfL6MXFMX_w-284" value="INT" style="shape=partialRectangle;connectable=0;fillColor=none;top=0;left=0;bottom=0;right=0;fontStyle=1;overflow=hidden;whiteSpace=wrap;html=1;" parent="1" vertex="1">
          <mxGeometry x="830" y="1595.5" width="30" height="30" as="geometry">
            <mxRectangle width="30" height="30" as="alternateBounds" />
          </mxGeometry>
        </mxCell>
        <mxCell id="YPRJRWyj9UfL6MXFMX_w-285" value="" style="shape=partialRectangle;connectable=0;fillColor=none;top=0;left=0;bottom=0;right=0;fontStyle=1;overflow=hidden;whiteSpace=wrap;html=1;" parent="1" vertex="1">
          <mxGeometry x="830" y="1645.5" width="30" height="30" as="geometry">
            <mxRectangle width="30" height="30" as="alternateBounds" />
          </mxGeometry>
        </mxCell>
        <mxCell id="YPRJRWyj9UfL6MXFMX_w-286" value="" style="endArrow=none;html=1;rounded=0;entryX=0.164;entryY=-0.022;entryDx=0;entryDy=0;entryPerimeter=0;" parent="1" edge="1" target="YPRJRWyj9UfL6MXFMX_w-270">
          <mxGeometry width="50" height="50" relative="1" as="geometry">
            <mxPoint x="710" y="1675.5" as="sourcePoint" />
            <mxPoint x="710" y="1575.5" as="targetPoint" />
          </mxGeometry>
        </mxCell>
        <mxCell id="YPRJRWyj9UfL6MXFMX_w-287" value="dpt_empleados" style="shape=partialRectangle;connectable=0;fillColor=none;top=0;left=0;bottom=0;right=0;align=left;spacingLeft=6;overflow=hidden;whiteSpace=wrap;html=1;" parent="1" vertex="1">
          <mxGeometry x="710" y="1590" width="100" height="30" as="geometry">
            <mxRectangle width="150" height="30" as="alternateBounds" />
          </mxGeometry>
        </mxCell>
        <mxCell id="YPRJRWyj9UfL6MXFMX_w-288" value="local_empleado" style="shape=partialRectangle;connectable=0;fillColor=none;top=0;left=0;bottom=0;right=0;align=left;spacingLeft=6;overflow=hidden;whiteSpace=wrap;html=1;" parent="1" vertex="1">
          <mxGeometry x="710" y="1615.5" width="150" height="30" as="geometry">
            <mxRectangle width="150" height="30" as="alternateBounds" />
          </mxGeometry>
        </mxCell>
        <mxCell id="YPRJRWyj9UfL6MXFMX_w-289" value="telefono_empleados" style="text;whiteSpace=wrap;html=1;" parent="1" vertex="1">
          <mxGeometry x="715" y="1640.5" width="140" height="40" as="geometry" />
        </mxCell>
        <mxCell id="Efv-xoLhRQSSkdxeiwo4-4" style="edgeStyle=orthogonalEdgeStyle;rounded=0;orthogonalLoop=1;jettySize=auto;html=1;startArrow=ERmandOne;startFill=0;endArrow=ERoneToMany;endFill=0;" edge="1" parent="1" source="YPRJRWyj9UfL6MXFMX_w-290">
          <mxGeometry relative="1" as="geometry">
            <mxPoint x="560" y="1300" as="targetPoint" />
          </mxGeometry>
        </mxCell>
        <mxCell id="YPRJRWyj9UfL6MXFMX_w-290" value="cliente" style="shape=table;startSize=30;container=1;collapsible=1;childLayout=tableLayout;fixedRows=1;rowLines=0;fontStyle=1;align=center;resizeLast=1;html=1;fillColor=#dae8fc;strokeColor=#6c8ebf;" parent="1" vertex="1">
          <mxGeometry x="695" y="1080" width="195" height="320" as="geometry" />
        </mxCell>
        <mxCell id="YPRJRWyj9UfL6MXFMX_w-291" value="" style="shape=tableRow;horizontal=0;startSize=0;swimlaneHead=0;swimlaneBody=0;fillColor=none;collapsible=0;dropTarget=0;points=[[0,0.5],[1,0.5]];portConstraint=eastwest;top=0;left=0;right=0;bottom=1;" parent="YPRJRWyj9UfL6MXFMX_w-290" vertex="1">
          <mxGeometry y="30" width="195" height="30" as="geometry" />
        </mxCell>
        <mxCell id="YPRJRWyj9UfL6MXFMX_w-292" value="PK" style="shape=partialRectangle;connectable=0;fillColor=#f5f5f5;top=0;left=0;bottom=0;right=0;fontStyle=1;overflow=hidden;whiteSpace=wrap;html=1;fontColor=#333333;strokeColor=#666666;" parent="YPRJRWyj9UfL6MXFMX_w-291" vertex="1">
          <mxGeometry width="30" height="30" as="geometry">
            <mxRectangle width="30" height="30" as="alternateBounds" />
          </mxGeometry>
        </mxCell>
        <mxCell id="YPRJRWyj9UfL6MXFMX_w-293" value="&lt;u&gt;id_cliente&lt;/u&gt;" style="shape=partialRectangle;connectable=0;fillColor=#f5f5f5;top=0;left=0;bottom=0;right=0;align=left;spacingLeft=6;fontStyle=5;overflow=hidden;whiteSpace=wrap;html=1;fontColor=#333333;strokeColor=#666666;" parent="YPRJRWyj9UfL6MXFMX_w-291" vertex="1">
          <mxGeometry x="30" width="165" height="30" as="geometry">
            <mxRectangle width="165" height="30" as="alternateBounds" />
          </mxGeometry>
        </mxCell>
        <mxCell id="YPRJRWyj9UfL6MXFMX_w-294" value="" style="shape=tableRow;horizontal=0;startSize=0;swimlaneHead=0;swimlaneBody=0;fillColor=none;collapsible=0;dropTarget=0;points=[[0,0.5],[1,0.5]];portConstraint=eastwest;top=0;left=0;right=0;bottom=0;" parent="YPRJRWyj9UfL6MXFMX_w-290" vertex="1">
          <mxGeometry y="60" width="195" height="30" as="geometry" />
        </mxCell>
        <mxCell id="YPRJRWyj9UfL6MXFMX_w-295" value="" style="shape=partialRectangle;connectable=0;fillColor=none;top=0;left=0;bottom=0;right=0;editable=1;overflow=hidden;whiteSpace=wrap;html=1;" parent="YPRJRWyj9UfL6MXFMX_w-294" vertex="1">
          <mxGeometry width="30" height="30" as="geometry">
            <mxRectangle width="30" height="30" as="alternateBounds" />
          </mxGeometry>
        </mxCell>
        <mxCell id="YPRJRWyj9UfL6MXFMX_w-296" value="name_cliente" style="shape=partialRectangle;connectable=0;fillColor=none;top=0;left=0;bottom=0;right=0;align=left;spacingLeft=6;overflow=hidden;whiteSpace=wrap;html=1;" parent="YPRJRWyj9UfL6MXFMX_w-294" vertex="1">
          <mxGeometry x="30" width="165" height="30" as="geometry">
            <mxRectangle width="165" height="30" as="alternateBounds" />
          </mxGeometry>
        </mxCell>
        <mxCell id="YPRJRWyj9UfL6MXFMX_w-297" value="" style="shape=tableRow;horizontal=0;startSize=0;swimlaneHead=0;swimlaneBody=0;fillColor=none;collapsible=0;dropTarget=0;points=[[0,0.5],[1,0.5]];portConstraint=eastwest;top=0;left=0;right=0;bottom=0;" parent="YPRJRWyj9UfL6MXFMX_w-290" vertex="1">
          <mxGeometry y="90" width="195" height="30" as="geometry" />
        </mxCell>
        <mxCell id="YPRJRWyj9UfL6MXFMX_w-298" value="" style="shape=partialRectangle;connectable=0;fillColor=none;top=0;left=0;bottom=0;right=0;editable=1;overflow=hidden;whiteSpace=wrap;html=1;" parent="YPRJRWyj9UfL6MXFMX_w-297" vertex="1">
          <mxGeometry width="30" height="30" as="geometry">
            <mxRectangle width="30" height="30" as="alternateBounds" />
          </mxGeometry>
        </mxCell>
        <mxCell id="YPRJRWyj9UfL6MXFMX_w-299" value="direction_cliente" style="shape=partialRectangle;connectable=0;fillColor=none;top=0;left=0;bottom=0;right=0;align=left;spacingLeft=6;overflow=hidden;whiteSpace=wrap;html=1;" parent="YPRJRWyj9UfL6MXFMX_w-297" vertex="1">
          <mxGeometry x="30" width="165" height="30" as="geometry">
            <mxRectangle width="165" height="30" as="alternateBounds" />
          </mxGeometry>
        </mxCell>
        <mxCell id="YPRJRWyj9UfL6MXFMX_w-300" value="" style="shape=tableRow;horizontal=0;startSize=0;swimlaneHead=0;swimlaneBody=0;fillColor=none;collapsible=0;dropTarget=0;points=[[0,0.5],[1,0.5]];portConstraint=eastwest;top=0;left=0;right=0;bottom=0;" parent="YPRJRWyj9UfL6MXFMX_w-290" vertex="1">
          <mxGeometry y="120" width="195" height="30" as="geometry" />
        </mxCell>
        <mxCell id="YPRJRWyj9UfL6MXFMX_w-301" value="" style="shape=partialRectangle;connectable=0;fillColor=none;top=0;left=0;bottom=0;right=0;editable=1;overflow=hidden;whiteSpace=wrap;html=1;" parent="YPRJRWyj9UfL6MXFMX_w-300" vertex="1">
          <mxGeometry width="30" height="30" as="geometry">
            <mxRectangle width="30" height="30" as="alternateBounds" />
          </mxGeometry>
        </mxCell>
        <mxCell id="YPRJRWyj9UfL6MXFMX_w-302" value="region_cliente" style="shape=partialRectangle;connectable=0;fillColor=none;top=0;left=0;bottom=0;right=0;align=left;spacingLeft=6;overflow=hidden;whiteSpace=wrap;html=1;" parent="YPRJRWyj9UfL6MXFMX_w-300" vertex="1">
          <mxGeometry x="30" width="165" height="30" as="geometry">
            <mxRectangle width="165" height="30" as="alternateBounds" />
          </mxGeometry>
        </mxCell>
        <mxCell id="YPRJRWyj9UfL6MXFMX_w-303" value="INT" style="shape=partialRectangle;connectable=0;fillColor=none;top=0;left=0;bottom=0;right=0;fontStyle=1;overflow=hidden;whiteSpace=wrap;html=1;" parent="1" vertex="1">
          <mxGeometry x="845" y="1110" width="30" height="30" as="geometry">
            <mxRectangle width="30" height="30" as="alternateBounds" />
          </mxGeometry>
        </mxCell>
        <mxCell id="YPRJRWyj9UfL6MXFMX_w-305" value="TEXT" style="shape=partialRectangle;connectable=0;fillColor=none;top=0;left=0;bottom=0;right=0;fontStyle=1;overflow=hidden;whiteSpace=wrap;html=1;" parent="1" vertex="1">
          <mxGeometry x="840" y="1170" width="40" height="30" as="geometry">
            <mxRectangle width="30" height="30" as="alternateBounds" />
          </mxGeometry>
        </mxCell>
        <mxCell id="YPRJRWyj9UfL6MXFMX_w-306" value="city_cliente" style="shape=partialRectangle;connectable=0;fillColor=none;top=0;left=0;bottom=0;right=0;align=left;spacingLeft=6;overflow=hidden;whiteSpace=wrap;html=1;" parent="1" vertex="1">
          <mxGeometry x="725" y="1230" width="150" height="30" as="geometry">
            <mxRectangle width="150" height="30" as="alternateBounds" />
          </mxGeometry>
        </mxCell>
        <mxCell id="YPRJRWyj9UfL6MXFMX_w-309" value="" style="endArrow=none;html=1;rounded=0;entryX=0.149;entryY=0.037;entryDx=0;entryDy=0;entryPerimeter=0;" parent="1" edge="1" target="YPRJRWyj9UfL6MXFMX_w-291">
          <mxGeometry width="50" height="50" relative="1" as="geometry">
            <mxPoint x="725" y="1400" as="sourcePoint" />
            <mxPoint x="725" y="1230" as="targetPoint" />
          </mxGeometry>
        </mxCell>
        <mxCell id="YPRJRWyj9UfL6MXFMX_w-310" value="comuna_cliente" style="shape=partialRectangle;connectable=0;fillColor=none;top=0;left=0;bottom=0;right=0;align=left;spacingLeft=6;overflow=hidden;whiteSpace=wrap;html=1;" parent="1" vertex="1">
          <mxGeometry x="725" y="1260" width="150" height="30" as="geometry">
            <mxRectangle width="150" height="30" as="alternateBounds" />
          </mxGeometry>
        </mxCell>
        <mxCell id="YPRJRWyj9UfL6MXFMX_w-311" value="genero_cliente" style="shape=partialRectangle;connectable=0;fillColor=none;top=0;left=0;bottom=0;right=0;align=left;spacingLeft=6;overflow=hidden;whiteSpace=wrap;html=1;" parent="1" vertex="1">
          <mxGeometry x="725" y="1290" width="150" height="30" as="geometry">
            <mxRectangle width="150" height="30" as="alternateBounds" />
          </mxGeometry>
        </mxCell>
        <mxCell id="YPRJRWyj9UfL6MXFMX_w-312" value="RUT_cliente" style="shape=partialRectangle;connectable=0;fillColor=none;top=0;left=0;bottom=0;right=0;align=left;spacingLeft=6;overflow=hidden;whiteSpace=wrap;html=1;" parent="1" vertex="1">
          <mxGeometry x="725" y="1320" width="150" height="30" as="geometry">
            <mxRectangle width="150" height="30" as="alternateBounds" />
          </mxGeometry>
        </mxCell>
        <mxCell id="YPRJRWyj9UfL6MXFMX_w-313" value="INT" style="shape=partialRectangle;connectable=0;fillColor=none;top=0;left=0;bottom=0;right=0;fontStyle=1;overflow=hidden;whiteSpace=wrap;html=1;" parent="1" vertex="1">
          <mxGeometry x="845" y="1350" width="30" height="30" as="geometry">
            <mxRectangle width="30" height="30" as="alternateBounds" />
          </mxGeometry>
        </mxCell>
        <mxCell id="YPRJRWyj9UfL6MXFMX_w-314" value="INT" style="shape=partialRectangle;connectable=0;fillColor=none;top=0;left=0;bottom=0;right=0;fontStyle=1;overflow=hidden;whiteSpace=wrap;html=1;" parent="1" vertex="1">
          <mxGeometry x="845" y="1290" width="30" height="30" as="geometry">
            <mxRectangle width="30" height="30" as="alternateBounds" />
          </mxGeometry>
        </mxCell>
        <mxCell id="YPRJRWyj9UfL6MXFMX_w-315" value="INT" style="shape=partialRectangle;connectable=0;fillColor=none;top=0;left=0;bottom=0;right=0;fontStyle=1;overflow=hidden;whiteSpace=wrap;html=1;" parent="1" vertex="1">
          <mxGeometry x="845" y="1320" width="30" height="30" as="geometry">
            <mxRectangle width="30" height="30" as="alternateBounds" />
          </mxGeometry>
        </mxCell>
        <mxCell id="YPRJRWyj9UfL6MXFMX_w-316" value="telefono_cliente" style="text;whiteSpace=wrap;html=1;" parent="1" vertex="1">
          <mxGeometry x="730" y="1350" width="120" height="40" as="geometry" />
        </mxCell>
        <mxCell id="Efv-xoLhRQSSkdxeiwo4-3" style="edgeStyle=orthogonalEdgeStyle;rounded=0;orthogonalLoop=1;jettySize=auto;html=1;endArrow=ERoneToMany;endFill=0;startArrow=ERmandOne;startFill=0;" edge="1" parent="1" source="YPRJRWyj9UfL6MXFMX_w-261">
          <mxGeometry relative="1" as="geometry">
            <mxPoint x="560" y="1220" as="targetPoint" />
            <Array as="points">
              <mxPoint x="640" y="990" />
              <mxPoint x="640" y="1220" />
            </Array>
          </mxGeometry>
        </mxCell>
        <mxCell id="Efv-xoLhRQSSkdxeiwo4-8" style="edgeStyle=orthogonalEdgeStyle;rounded=0;orthogonalLoop=1;jettySize=auto;html=1;endArrow=ERoneToMany;endFill=0;startArrow=ERmandOne;startFill=0;" edge="1" parent="1" source="YPRJRWyj9UfL6MXFMX_w-279">
          <mxGeometry relative="1" as="geometry">
            <mxPoint x="560" y="1430" as="targetPoint" />
            <Array as="points">
              <mxPoint x="630" y="1606" />
              <mxPoint x="630" y="1430" />
            </Array>
          </mxGeometry>
        </mxCell>
        <mxCell id="Efv-xoLhRQSSkdxeiwo4-9" value="" style="endArrow=none;html=1;rounded=0;entryX=0.164;entryY=-0.022;entryDx=0;entryDy=0;entryPerimeter=0;" edge="1" parent="1">
          <mxGeometry width="50" height="50" relative="1" as="geometry">
            <mxPoint x="826" y="1674.5" as="sourcePoint" />
            <mxPoint x="826" y="1499" as="targetPoint" />
          </mxGeometry>
        </mxCell>
        <mxCell id="Efv-xoLhRQSSkdxeiwo4-10" value="INT" style="shape=partialRectangle;connectable=0;fillColor=none;top=0;left=0;bottom=0;right=0;fontStyle=1;overflow=hidden;whiteSpace=wrap;html=1;" vertex="1" parent="1">
          <mxGeometry x="830" y="1500" width="30" height="30" as="geometry">
            <mxRectangle width="30" height="30" as="alternateBounds" />
          </mxGeometry>
        </mxCell>
        <mxCell id="Efv-xoLhRQSSkdxeiwo4-11" value="INT" style="shape=partialRectangle;connectable=0;fillColor=none;top=0;left=0;bottom=0;right=0;fontStyle=1;overflow=hidden;whiteSpace=wrap;html=1;" vertex="1" parent="1">
          <mxGeometry x="825" y="1640.5" width="40" height="30" as="geometry">
            <mxRectangle width="30" height="30" as="alternateBounds" />
          </mxGeometry>
        </mxCell>
        <mxCell id="Efv-xoLhRQSSkdxeiwo4-13" value="INT" style="shape=partialRectangle;connectable=0;fillColor=none;top=0;left=0;bottom=0;right=0;fontStyle=1;overflow=hidden;whiteSpace=wrap;html=1;" vertex="1" parent="1">
          <mxGeometry x="830" y="1615.5" width="30" height="30" as="geometry">
            <mxRectangle width="30" height="30" as="alternateBounds" />
          </mxGeometry>
        </mxCell>
        <mxCell id="Efv-xoLhRQSSkdxeiwo4-14" value="" style="endArrow=none;html=1;rounded=0;" edge="1" parent="1">
          <mxGeometry width="50" height="50" relative="1" as="geometry">
            <mxPoint x="182.17000000000002" y="1670.5" as="sourcePoint" />
            <mxPoint x="181.67000000000002" y="1536" as="targetPoint" />
          </mxGeometry>
        </mxCell>
        <mxCell id="Efv-xoLhRQSSkdxeiwo4-16" value="" style="endArrow=none;html=1;rounded=0;" edge="1" parent="1">
          <mxGeometry width="50" height="50" relative="1" as="geometry">
            <mxPoint x="170.5" y="1040" as="sourcePoint" />
            <mxPoint x="170" y="889.5" as="targetPoint" />
          </mxGeometry>
        </mxCell>
        <mxCell id="Efv-xoLhRQSSkdxeiwo4-18" value="FK" style="shape=partialRectangle;connectable=0;top=0;left=0;bottom=0;right=0;fontStyle=1;overflow=hidden;whiteSpace=wrap;html=1;fillColor=none;" vertex="1" parent="1">
          <mxGeometry x="380" y="1455.5" width="30" height="30" as="geometry">
            <mxRectangle width="30" height="30" as="alternateBounds" />
          </mxGeometry>
        </mxCell>
        <mxCell id="Efv-xoLhRQSSkdxeiwo4-19" value="FK" style="shape=partialRectangle;connectable=0;top=0;left=0;bottom=0;right=0;fontStyle=1;overflow=hidden;whiteSpace=wrap;html=1;fillColor=none;" vertex="1" parent="1">
          <mxGeometry x="380" y="1485.5" width="30" height="30" as="geometry">
            <mxRectangle width="30" height="30" as="alternateBounds" />
          </mxGeometry>
        </mxCell>
        <mxCell id="Efv-xoLhRQSSkdxeiwo4-20" value="FK" style="shape=partialRectangle;connectable=0;top=0;left=0;bottom=0;right=0;fontStyle=1;overflow=hidden;whiteSpace=wrap;html=1;fillColor=none;" vertex="1" parent="1">
          <mxGeometry x="380" y="1515.5" width="30" height="30" as="geometry">
            <mxRectangle width="30" height="30" as="alternateBounds" />
          </mxGeometry>
        </mxCell>
        <mxCell id="Efv-xoLhRQSSkdxeiwo4-21" value="FK" style="shape=partialRectangle;connectable=0;top=0;left=0;bottom=0;right=0;fontStyle=1;overflow=hidden;whiteSpace=wrap;html=1;fillColor=none;" vertex="1" parent="1">
          <mxGeometry x="380" y="1545.5" width="30" height="30" as="geometry">
            <mxRectangle width="30" height="30" as="alternateBounds" />
          </mxGeometry>
        </mxCell>
        <mxCell id="Efv-xoLhRQSSkdxeiwo4-22" value="FK" style="shape=partialRectangle;connectable=0;top=0;left=0;bottom=0;right=0;fontStyle=1;overflow=hidden;whiteSpace=wrap;html=1;fillColor=none;" vertex="1" parent="1">
          <mxGeometry x="380" y="1575.5" width="30" height="30" as="geometry">
            <mxRectangle width="30" height="30" as="alternateBounds" />
          </mxGeometry>
        </mxCell>
        <mxCell id="Efv-xoLhRQSSkdxeiwo4-23" value="FK" style="shape=partialRectangle;connectable=0;top=0;left=0;bottom=0;right=0;fontStyle=1;overflow=hidden;whiteSpace=wrap;html=1;fillColor=none;" vertex="1" parent="1">
          <mxGeometry x="380" y="1605.5" width="30" height="30" as="geometry">
            <mxRectangle width="30" height="30" as="alternateBounds" />
          </mxGeometry>
        </mxCell>
        <mxCell id="Efv-xoLhRQSSkdxeiwo4-24" value="FK" style="shape=partialRectangle;connectable=0;top=0;left=0;bottom=0;right=0;fontStyle=1;overflow=hidden;whiteSpace=wrap;html=1;fillColor=none;" vertex="1" parent="1">
          <mxGeometry x="380" y="1635.5" width="30" height="30" as="geometry">
            <mxRectangle width="30" height="30" as="alternateBounds" />
          </mxGeometry>
        </mxCell>
        <mxCell id="Efv-xoLhRQSSkdxeiwo4-25" value="INT" style="shape=partialRectangle;connectable=0;fillColor=none;top=0;left=0;bottom=0;right=0;fontStyle=1;overflow=hidden;whiteSpace=wrap;html=1;" vertex="1" parent="1">
          <mxGeometry x="530" y="1455.5" width="30" height="30" as="geometry">
            <mxRectangle width="30" height="30" as="alternateBounds" />
          </mxGeometry>
        </mxCell>
        <mxCell id="Efv-xoLhRQSSkdxeiwo4-26" value="INT" style="shape=partialRectangle;connectable=0;fillColor=none;top=0;left=0;bottom=0;right=0;fontStyle=1;overflow=hidden;whiteSpace=wrap;html=1;" vertex="1" parent="1">
          <mxGeometry x="530" y="1485.5" width="30" height="30" as="geometry">
            <mxRectangle width="30" height="30" as="alternateBounds" />
          </mxGeometry>
        </mxCell>
        <mxCell id="Efv-xoLhRQSSkdxeiwo4-27" value="INT" style="shape=partialRectangle;connectable=0;fillColor=none;top=0;left=0;bottom=0;right=0;fontStyle=1;overflow=hidden;whiteSpace=wrap;html=1;" vertex="1" parent="1">
          <mxGeometry x="530" y="1515.5" width="30" height="30" as="geometry">
            <mxRectangle width="30" height="30" as="alternateBounds" />
          </mxGeometry>
        </mxCell>
        <mxCell id="Efv-xoLhRQSSkdxeiwo4-28" value="INT" style="shape=partialRectangle;connectable=0;fillColor=none;top=0;left=0;bottom=0;right=0;fontStyle=1;overflow=hidden;whiteSpace=wrap;html=1;" vertex="1" parent="1">
          <mxGeometry x="530" y="1545.5" width="30" height="30" as="geometry">
            <mxRectangle width="30" height="30" as="alternateBounds" />
          </mxGeometry>
        </mxCell>
        <mxCell id="Efv-xoLhRQSSkdxeiwo4-29" value="INT" style="shape=partialRectangle;connectable=0;fillColor=none;top=0;left=0;bottom=0;right=0;fontStyle=1;overflow=hidden;whiteSpace=wrap;html=1;" vertex="1" parent="1">
          <mxGeometry x="530" y="1572.75" width="30" height="30" as="geometry">
            <mxRectangle width="30" height="30" as="alternateBounds" />
          </mxGeometry>
        </mxCell>
        <mxCell id="Efv-xoLhRQSSkdxeiwo4-30" value="INT" style="shape=partialRectangle;connectable=0;fillColor=none;top=0;left=0;bottom=0;right=0;fontStyle=1;overflow=hidden;whiteSpace=wrap;html=1;" vertex="1" parent="1">
          <mxGeometry x="530" y="1602.75" width="30" height="30" as="geometry">
            <mxRectangle width="30" height="30" as="alternateBounds" />
          </mxGeometry>
        </mxCell>
        <mxCell id="Efv-xoLhRQSSkdxeiwo4-31" value="INT" style="shape=partialRectangle;connectable=0;fillColor=none;top=0;left=0;bottom=0;right=0;fontStyle=1;overflow=hidden;whiteSpace=wrap;html=1;" vertex="1" parent="1">
          <mxGeometry x="530" y="1632.75" width="30" height="30" as="geometry">
            <mxRectangle width="30" height="30" as="alternateBounds" />
          </mxGeometry>
        </mxCell>
        <mxCell id="Efv-xoLhRQSSkdxeiwo4-32" value="" style="endArrow=none;html=1;rounded=0;" edge="1" parent="1">
          <mxGeometry width="50" height="50" relative="1" as="geometry">
            <mxPoint x="182.61" y="1380" as="sourcePoint" />
            <mxPoint x="182.5" y="1135.5" as="targetPoint" />
          </mxGeometry>
        </mxCell>
        <mxCell id="Efv-xoLhRQSSkdxeiwo4-33" value="" style="endArrow=none;html=1;rounded=0;entryX=0.164;entryY=0.059;entryDx=0;entryDy=0;entryPerimeter=0;" edge="1" parent="1">
          <mxGeometry width="50" height="50" relative="1" as="geometry">
            <mxPoint x="539.7" y="1009.25" as="sourcePoint" />
            <mxPoint x="539.7" y="885.25" as="targetPoint" />
          </mxGeometry>
        </mxCell>
        <mxCell id="Efv-xoLhRQSSkdxeiwo4-34" value="" style="endArrow=none;html=1;rounded=0;entryX=0.168;entryY=0.011;entryDx=0;entryDy=0;entryPerimeter=0;exitX=0.161;exitY=0.97;exitDx=0;exitDy=0;exitPerimeter=0;" edge="1" parent="1">
          <mxGeometry width="50" height="50" relative="1" as="geometry">
            <mxPoint x="844" y="1000.5" as="sourcePoint" />
            <mxPoint x="845" y="881.5" as="targetPoint" />
          </mxGeometry>
        </mxCell>
        <mxCell id="Efv-xoLhRQSSkdxeiwo4-35" value="" style="endArrow=none;html=1;rounded=0;entryX=0.716;entryY=0;entryDx=0;entryDy=0;entryPerimeter=0;" edge="1" parent="1" target="YPRJRWyj9UfL6MXFMX_w-291">
          <mxGeometry width="50" height="50" relative="1" as="geometry">
            <mxPoint x="835" y="1400" as="sourcePoint" />
            <mxPoint x="834.7" y="1116" as="targetPoint" />
          </mxGeometry>
        </mxCell>
        <mxCell id="Efv-xoLhRQSSkdxeiwo4-36" value="" style="endArrow=none;html=1;rounded=0;entryX=0.166;entryY=0.107;entryDx=0;entryDy=0;entryPerimeter=0;" edge="1" parent="1">
          <mxGeometry width="50" height="50" relative="1" as="geometry">
            <mxPoint x="520" y="1660" as="sourcePoint" />
            <mxPoint x="520" y="1185.5" as="targetPoint" />
          </mxGeometry>
        </mxCell>
        <mxCell id="Efv-xoLhRQSSkdxeiwo4-37" value="TEXT" style="shape=partialRectangle;connectable=0;fillColor=none;top=0;left=0;bottom=0;right=0;fontStyle=1;overflow=hidden;whiteSpace=wrap;html=1;" vertex="1" parent="1">
          <mxGeometry x="840" y="1140" width="40" height="30" as="geometry">
            <mxRectangle width="30" height="30" as="alternateBounds" />
          </mxGeometry>
        </mxCell>
        <mxCell id="Efv-xoLhRQSSkdxeiwo4-38" value="TEXT" style="shape=partialRectangle;connectable=0;fillColor=none;top=0;left=0;bottom=0;right=0;fontStyle=1;overflow=hidden;whiteSpace=wrap;html=1;" vertex="1" parent="1">
          <mxGeometry x="840" y="1195.5" width="40" height="30" as="geometry">
            <mxRectangle width="30" height="30" as="alternateBounds" />
          </mxGeometry>
        </mxCell>
        <mxCell id="Efv-xoLhRQSSkdxeiwo4-39" value="TEXT" style="shape=partialRectangle;connectable=0;fillColor=none;top=0;left=0;bottom=0;right=0;fontStyle=1;overflow=hidden;whiteSpace=wrap;html=1;" vertex="1" parent="1">
          <mxGeometry x="840" y="1225" width="40" height="30" as="geometry">
            <mxRectangle width="30" height="30" as="alternateBounds" />
          </mxGeometry>
        </mxCell>
        <mxCell id="Efv-xoLhRQSSkdxeiwo4-40" value="TEXT" style="shape=partialRectangle;connectable=0;fillColor=none;top=0;left=0;bottom=0;right=0;fontStyle=1;overflow=hidden;whiteSpace=wrap;html=1;" vertex="1" parent="1">
          <mxGeometry x="840" y="1255.5" width="40" height="30" as="geometry">
            <mxRectangle width="30" height="30" as="alternateBounds" />
          </mxGeometry>
        </mxCell>
        <mxCell id="Efv-xoLhRQSSkdxeiwo4-41" value="TEXT" style="shape=partialRectangle;connectable=0;fillColor=none;top=0;left=0;bottom=0;right=0;fontStyle=1;overflow=hidden;whiteSpace=wrap;html=1;" vertex="1" parent="1">
          <mxGeometry x="827" y="1535.5" width="40" height="30" as="geometry">
            <mxRectangle width="30" height="30" as="alternateBounds" />
          </mxGeometry>
        </mxCell>
        <mxCell id="Efv-xoLhRQSSkdxeiwo4-42" value="TEXT" style="shape=partialRectangle;connectable=0;fillColor=none;top=0;left=0;bottom=0;right=0;fontStyle=1;overflow=hidden;whiteSpace=wrap;html=1;" vertex="1" parent="1">
          <mxGeometry x="520" y="1305.5" width="40" height="30" as="geometry">
            <mxRectangle width="30" height="30" as="alternateBounds" />
          </mxGeometry>
        </mxCell>
        <mxCell id="Efv-xoLhRQSSkdxeiwo4-43" value="TEXT" style="shape=partialRectangle;connectable=0;fillColor=none;top=0;left=0;bottom=0;right=0;fontStyle=1;overflow=hidden;whiteSpace=wrap;html=1;" vertex="1" parent="1">
          <mxGeometry x="520" y="1335.5" width="40" height="30" as="geometry">
            <mxRectangle width="30" height="30" as="alternateBounds" />
          </mxGeometry>
        </mxCell>
        <mxCell id="Efv-xoLhRQSSkdxeiwo4-44" value="TEXT" style="shape=partialRectangle;connectable=0;fillColor=none;top=0;left=0;bottom=0;right=0;fontStyle=1;overflow=hidden;whiteSpace=wrap;html=1;" vertex="1" parent="1">
          <mxGeometry x="520" y="1365.5" width="40" height="30" as="geometry">
            <mxRectangle width="30" height="30" as="alternateBounds" />
          </mxGeometry>
        </mxCell>
        <mxCell id="Efv-xoLhRQSSkdxeiwo4-45" value="TEXT" style="shape=partialRectangle;connectable=0;fillColor=none;top=0;left=0;bottom=0;right=0;fontStyle=1;overflow=hidden;whiteSpace=wrap;html=1;" vertex="1" parent="1">
          <mxGeometry x="520" y="1392.75" width="40" height="30" as="geometry">
            <mxRectangle width="30" height="30" as="alternateBounds" />
          </mxGeometry>
        </mxCell>
      </root>
    </mxGraphModel>
  </diagram>
</mxfile>
